<svg width="80" height="80" viewBox="0 0 80 80" fill="none" xmlns="http://www.w3.org/2000/svg">
<path d="M33.0469 74.0464H6.65659C6.09007 74.0464 5.63371 73.5848 5.63371 73.0236V48.0286H0V76.8633C0 78.5576 1.37433 79.9372 3.07389 79.9372H33.0521C33.477 79.9372 33.818 79.591 33.818 79.1713V74.8228C33.818 74.3979 33.4718 74.0569 33.0521 74.0569L33.0469 74.0464Z" fill="#35AD72"/>
<path d="M70.4889 61.0951V73.0234C70.4889 73.5899 70.0325 74.0463 69.466 74.0463H41.2922C40.8673 74.0463 40.5264 74.3925 40.5264 74.8174V79.1659C40.5264 79.5908 40.8726 79.9318 41.2922 79.9318H73.054C74.7483 79.9318 76.1278 78.5575 76.1278 76.8579V61.0898C76.1278 60.6649 75.7816 60.324 75.362 60.324H71.2652C70.8403 60.324 70.4994 60.6702 70.4994 61.0898L70.4889 61.0951Z" fill="#7ACEA2"/>
<path d="M37.2538 0.000308482C36.3516 -0.0101826 35.4493 0.246849 34.6783 0.781894L2.57556 21.1661L2.43393 21.2657C0.907478 22.3725 0 24.1403 0 25.9972V48.0862H5.63371V26.8417C5.63371 26.3172 5.90123 25.8293 6.34186 25.5461L36.4145 6.34741C36.6716 6.1848 36.9601 6.10612 37.2486 6.10612V0.000308482H37.2538Z" fill="#7ACEA2"/>
<path d="M67.0015 18.8212C67.4631 18.2967 67.3477 17.5676 66.7497 17.2004L39.6407 0.724128C38.9116 0.246784 38.0776 0.0107352 37.2383 0.000244141V6.1113C37.511 6.1113 37.7838 6.18473 38.0251 6.33161L63.3611 21.6328C63.8069 21.9004 64.3787 21.8112 64.7197 21.423L66.9962 18.8212H67.0015Z" fill="#35AD72"/>
<path d="M61.3259 53.6303H50.2893C49.7962 53.6303 49.3398 53.4415 48.9779 53.0848C48.616 52.7229 48.4219 52.2718 48.4219 51.7734C48.4219 50.462 48.6842 49.1297 49.1982 47.8235C49.707 46.5384 50.4362 45.3162 51.3646 44.1989C52.3036 43.0711 53.4419 42.1059 54.7532 41.3243C56.0332 40.5427 57.0141 39.7769 57.6645 39.0582C58.2887 38.3711 58.7189 37.7206 58.9339 37.1226C59.1542 36.5142 59.2696 35.9267 59.2696 35.3759C59.2696 34.4999 58.9916 33.8232 58.4251 33.3091C57.8271 32.7688 57.0403 32.5066 56.0279 32.5066C55.0837 32.5066 54.3021 32.7164 53.6412 33.1413C52.996 33.5609 52.5291 34.1694 52.2039 35.0034C52.0098 35.4913 51.6584 35.848 51.1915 36.0473C50.7194 36.2466 50.2263 36.2414 49.7595 36.0421C49.3136 35.8637 48.9569 35.5175 48.7576 35.0507C48.5635 34.589 48.5583 34.096 48.7576 33.6186C49.3661 32.1079 50.3208 30.9119 51.5954 30.0674C52.8648 29.2229 54.3546 28.7927 56.0332 28.7927C57.3498 28.7927 58.5458 29.0707 59.5896 29.611C60.6545 30.1671 61.499 30.9591 62.1022 31.9663C62.7002 32.9682 63.0045 34.1169 63.0045 35.3864C63.0045 37.0964 62.4904 38.7383 61.4728 40.2647C60.4866 41.744 58.8762 43.1655 56.6888 44.4926C55.4142 45.269 54.3703 46.2866 53.5887 47.5088C53.0694 48.3219 52.6917 49.1297 52.4609 49.9218H61.3364C61.8557 49.9218 62.3121 50.1053 62.6635 50.4568C63.015 50.8083 63.2038 51.2699 63.2038 51.7839C63.2038 52.2665 63.0255 52.7124 62.695 53.0691C62.3383 53.4468 61.8714 53.6461 61.3416 53.6461L61.3259 53.6303Z" fill="#35AD72"/>
<path d="M74.1512 54.0446C73.6686 54.0446 73.2227 53.8663 72.866 53.5358C72.4883 53.1843 72.289 52.728 72.289 52.2139V48.2273H64.2004C63.5132 48.2273 62.9257 47.8706 62.59 47.2516C62.2228 46.6641 62.2543 45.914 62.7107 45.3108L72.4883 29.805C72.5513 29.6791 72.6352 29.5584 72.7296 29.4483C72.8975 29.2542 73.1021 29.0968 73.3381 28.9814C74.0358 28.6457 74.9328 28.7874 75.4783 29.3329C75.8297 29.6843 76.0133 30.1302 76.0133 30.6285V44.503H78.1693C78.6991 44.503 79.1607 44.6971 79.5069 45.059C79.8321 45.4105 80 45.8616 80 46.3599C80 46.8268 79.8373 47.2621 79.5331 47.6136C79.1921 48.007 78.7096 48.2168 78.1693 48.2168H76.0133V52.2034C76.0133 52.7018 75.8298 53.1529 75.4731 53.4991C75.1216 53.8453 74.6652 54.0341 74.1459 54.0341L74.1512 54.0446ZM67.5838 44.5082H72.289V37.0386C72.0949 37.3481 71.9061 37.6523 71.7225 37.9408C70.6472 39.6614 69.7659 41.0567 69.084 42.1268C68.4388 43.1391 67.9405 43.9312 67.5838 44.5082Z" fill="#35AD72"/>
<path d="M44.986 36.3883H44.7342C43.6431 36.3883 43.5225 35.7483 43.5225 35.4756C43.5225 35.2028 43.6431 34.9772 43.769 34.7464C44.1362 34.096 44.409 33.4141 44.5086 33.0626C43.47 32.7531 42.8301 31.9348 42.8301 30.9172C42.8301 29.4694 43.8739 28.457 45.3689 28.457C46.502 28.457 47.7242 29.2753 47.7242 31.0798C47.7242 32.8843 46.8482 34.8041 46.5806 35.3707C46.2135 36.1365 45.8148 36.3935 44.9807 36.3935L44.986 36.3883Z" fill="#35AD72"/>
<path d="M27.0035 64.384C26.1747 64.384 25.3721 64.0431 24.8004 63.4451L13.7428 51.9101C11.0518 49.2192 10.3804 45.0804 12.0957 41.6394C13.3756 39.0795 15.8252 37.2803 18.6473 36.824C21.4747 36.3676 24.365 37.3013 26.3898 39.3261L26.9982 39.9346L27.612 39.3208C29.6367 37.2961 32.5375 36.3624 35.3491 36.824C38.1712 37.2803 40.6209 39.0848 41.9008 41.6394C43.6213 45.0804 42.9499 49.2192 40.2275 51.9416L29.1961 63.4503C28.6244 64.0483 27.8218 64.3893 26.9982 64.3893L27.0035 64.384ZM20.0794 40.4696C19.8066 40.4696 19.5338 40.4906 19.2558 40.5378C17.6245 40.8053 16.2082 41.8439 15.4685 43.3232C14.4771 45.3112 14.8653 47.7032 16.4337 49.2716L27.0035 60.2977L37.547 49.3031C39.1469 47.7032 39.5351 45.3112 38.5384 43.3232C37.7988 41.8439 36.3825 40.8053 34.7511 40.5378C33.1198 40.2703 31.4465 40.8158 30.2819 41.9803L27.0035 45.2535L23.7303 41.9803C22.7598 41.0047 21.438 40.4696 20.0794 40.4696Z" fill="#35AD72"/>
</svg>
