<svg width="80" height="63" viewBox="0 0 80 63" fill="none" xmlns="http://www.w3.org/2000/svg">
  <path d="M71.7128 0H0.0183105V47.3118H71.7128V0Z" fill="white"/>
  <path d="M0.344278 0H31.0866C31.6502 5.0901 30.8552 8.52503 27.7584 12.3871C24.6676 16.2492 18.6698 19.4527 12.2034 17.762C5.74287 16.0593 1.24602 10.3166 0.587511 6.16982C-0.0650659 2.02299 0.344278 0 0.344278 0Z" fill="#004098"/>
  <path d="M33.2876 0H51.6547C51.0021 7.01817 44.6305 15.1161 40.6973 17.756C36.7581 20.3901 30.2917 23.7835 23.0777 23.3089C15.8638 22.8402 10.8033 20.5799 7.42773 18.2247C11.3669 20.0104 18.1122 21.802 24.6676 17.756C31.229 13.7041 34.213 6.92325 33.2816 0" fill="#004098"/>
  <path d="M55.8663 0H71.7121C70.9646 7.11309 67.9805 16.172 61.4963 22.8402C57.3732 27.0819 49.6491 32.6526 39.9435 33.8628C28.6064 35.2807 16.7058 31.5076 9.302 23.8784C16.9846 27.8354 25.3079 27.5447 29.4488 26.8921C38.4307 25.492 45.3776 21.0545 50.3432 13.4253C55.3146 5.79014 55.8663 0 55.8663 0Z" fill="#004098"/>
  <path d="M0.0234375 22.1757C4.24146 27.6395 12.6775 35.9332 23.5459 38.5731C34.4142 41.2131 44.0664 40.8334 54.9408 34.9958C65.8091 29.1582 71.7179 19.067 71.7179 19.067V47.3295H0.0234375V22.1757Z" fill="#004098"/>
  <path d="M0 53.3688H5.0901V50.3551H7.44531V53.3688H12.2981V55.3444H7.58769V58.5479C7.58769 60.5472 6.2944 61.9947 4.91806 61.9947C3.40526 61.9947 1.09158 62.0422 1.09158 62.0422V59.9598H3.3934C4.14683 59.9598 5.0723 59.4912 5.13163 58.0377C5.19095 56.6732 5.14349 55.291 5.14349 55.291H0.0237301L0 53.3629" fill="#231815"/>
  <path d="M13.7043 50.3551V60.0607C13.7043 61.4252 14.3688 62.1312 15.3536 62.1786C16.3443 62.2261 23.2676 62.1786 23.2676 62.1786V60.0607H16.5816C16.018 60.0607 15.6858 59.5861 15.6858 58.9276V55.3918H22.6091V53.5112H15.7333V50.3551H13.7043Z" fill="#231815"/>
  <path d="M22.6086 50.3551H21.2441V52.2832H22.6086V50.3551Z" fill="#231815"/>
  <path d="M24.6789 50.3551H23.3145V52.2832H24.6789V50.3551Z" fill="#231815"/>
  <path d="M37.7727 50.3551H36.4082V52.2832H37.7727V50.3551Z" fill="#231815"/>
  <path d="M39.843 50.3551H38.4785V52.2832H39.843V50.3551Z" fill="#231815"/>
  <path d="M33.5364 52.4256H28.7786C28.3573 53.7426 27.6929 55.0181 25.1953 55.6766V53.6061C26.3225 53.3688 27.0344 51.862 27.2242 50.3551H35.6543C35.6543 52.0043 35.8501 55.107 35.2331 56.9046C34.2899 59.6336 32.8305 61.004 30.4278 61.6091C28.0251 62.2201 25.4801 62.0362 25.4801 62.0362V60.1082C25.4801 60.1082 28.304 60.0904 29.7693 59.4971C31.5906 58.7555 32.4033 58.2276 32.9491 56.7682H28.215V55.1189H33.3763C33.5661 54.2231 33.5364 52.4315 33.5364 52.4315" fill="#231815"/>
  <path d="M36.5919 56.7148V54.9232C36.5919 54.9232 39.6056 54.9647 41.065 54.591C42.5244 54.2172 43.9363 53.5587 44.5948 52.3782C45.2533 51.1976 45.3483 50.3492 45.3483 50.3492H47.4662C46.9975 52.7045 46.7602 53.3155 45.9119 54.2172C45.0635 55.1071 43.5092 56.0504 43.5092 56.0504V61.9414H41.2964V56.525C39.6946 56.9047 37.814 56.8098 36.5859 56.7148" fill="#231815"/>
  <path d="M48.1306 52.5681H50.5332V50.4917H52.6986V52.4732H59.8117C59.8117 52.4732 59.788 55.1665 58.6371 56.8514C57.5039 58.5006 56.4242 59.3015 54.1165 59.3015V57.4624C54.1165 57.4624 55.2377 57.3971 56.2818 56.6378C56.9878 56.1157 57.1836 55.2021 57.2251 54.5911H52.752V62.0304H50.5392V54.5436H48.095L48.1424 52.5621" fill="#231815"/>
  <path d="M61.5024 50.3551H63.6203V57.3258C63.6203 58.6013 63.1575 60.209 61.4549 61.1879C60.2328 61.8939 59.5684 61.7515 59.5684 61.7515L59.6633 59.6336C59.6633 59.6336 60.7015 59.4912 61.1701 58.2691C61.6388 57.0411 61.449 56.43 61.449 55.2554C61.449 54.0807 61.4905 50.3551 61.4905 50.3551" fill="#231815"/>
  <path d="M64.4744 50.3551H66.7821V59.07C66.7821 59.07 68.2297 59.1056 69.0958 57.5631C69.7543 56.3885 69.8967 54.7867 69.8967 54.7867H71.7833C71.7833 54.7867 71.5459 57.7055 70.5078 58.9751C69.4755 60.2446 68.5322 61.704 64.4329 61.704L64.4744 50.3551Z" fill="#231815"/>
  <path d="M73.1477 44.049C73.1477 45.9415 74.6842 47.472 76.5708 47.472C78.4573 47.472 79.9998 45.9415 79.9998 44.049C79.9998 42.1565 78.4632 40.62 76.5708 40.62C74.6783 40.62 73.1477 42.1565 73.1477 44.049ZM73.5155 44.049C73.5155 42.3642 74.8859 40.9878 76.5708 40.9878C78.2556 40.9878 79.6319 42.3582 79.6319 44.049C79.6319 45.7398 78.2556 47.1102 76.5708 47.1102C74.8859 47.1102 73.5155 45.7398 73.5155 44.049Z" fill="#231815"/>
  <path d="M78.2381 46.2677H77.5796L76.2507 44.2091H75.6694V46.2677H75.1414V41.7412H76.4287C76.8559 41.7412 77.194 41.8421 77.4491 42.0556C77.6983 42.2633 77.8228 42.554 77.8228 42.9277C77.8228 43.2006 77.7339 43.4498 77.55 43.6633C77.372 43.8769 77.1169 44.0252 76.7965 44.1024L78.2441 46.2677H78.2381ZM75.6694 43.7523H76.3338C76.6067 43.7523 76.8381 43.6752 77.0101 43.5269C77.1821 43.3727 77.2711 43.1887 77.2711 42.9574C77.2711 42.4472 76.9626 42.198 76.3457 42.198H75.6694V43.7523Z" fill="#231815"/>
  <path d="M73.1477 58.5955C73.1477 60.488 74.6842 62.0245 76.5708 62.0245C78.4573 62.0245 79.9998 60.488 79.9998 58.5955C79.9998 56.703 78.4632 55.1665 76.5708 55.1665C74.6783 55.1665 73.1477 56.703 73.1477 58.5955ZM73.5155 58.5955C73.5155 56.9107 74.8859 55.5343 76.5708 55.5343C78.2556 55.5343 79.6319 56.9107 79.6319 58.5955C79.6319 60.2803 78.2556 61.6507 76.5708 61.6507C74.8859 61.6507 73.5155 60.2803 73.5155 58.5955Z" fill="#231815"/>
  <path d="M78.2381 60.8082H77.5796L76.2507 58.7556H75.6694V60.8082H75.1414V56.2817H76.4287C76.8559 56.2817 77.194 56.3826 77.4491 56.5962C77.6983 56.8038 77.8228 57.0945 77.8228 57.4682C77.8228 57.7411 77.7339 57.9903 77.55 58.2039C77.372 58.4174 77.1169 58.5598 76.7965 58.6429L78.2441 60.8082H78.2381ZM75.6694 58.2929H76.3338C76.6067 58.2929 76.8381 58.2157 77.0101 58.0674C77.1821 57.9191 77.2711 57.7293 77.2711 57.4979C77.2711 56.9936 76.9626 56.7385 76.3457 56.7385H75.6694V58.2929Z" fill="#231815"/>
</svg>
