<svg width="40" height="63" viewBox="0 0 40 63" fill="none" xmlns="http://www.w3.org/2000/svg">
<path d="M2 61C2 59.5013 2 44.1081 2 31.0039M7.69948 54.8705L28.4919 47.9397C29.4768 47.6113 30.1412 46.6896 30.1412 45.6513V31.0039M16.0706 9.80894L5.19219 6.091C3.62699 5.55606 2 6.71895 2 8.37305C2 14.8783 2 23.1204 2 31.0039M16.0706 9.80894L28.5092 14.0601C29.4853 14.3937 30.1412 15.3111 30.1412 16.3426V31.0039M16.0706 9.80894V51.8195M30.1412 31.0039H2" stroke="#EF8786" stroke-width="3.815" stroke-linecap="round" stroke-linejoin="round"/>
<path opacity="0.3" d="M16.0707 9.80908L28.5093 14.0602C29.4854 14.3938 30.1413 15.3112 30.1413 16.3427V31.004" stroke="#EF8786" stroke-width="19.075" stroke-linecap="round" stroke-linejoin="round"/>
</svg> 