<svg width="62" height="49" viewBox="0 0 62 49" fill="none" xmlns="http://www.w3.org/2000/svg">
  <path d="M26.3779 36.2315C27.6137 36.5845 28.9216 36.7771 30.2777 36.7771C38.0773 36.7771 44.4004 30.454 44.4004 22.6544C44.4004 14.8548 38.0773 8.53174 30.2777 8.53174C22.4781 8.53174 16.155 14.8548 16.155 22.6544C16.155 26.5703 17.7438 30.1089 20.3196 32.6687L19.0036 39.4733L26.386 36.2395L26.3779 36.2315Z" fill="#F57D14" stroke="#F57D14" stroke-width="2.40728" stroke-linecap="round" stroke-linejoin="round"/>
  <path d="M10.9312 15.7215C10.2973 15.5369 9.62327 15.4406 8.92516 15.4406C4.92909 15.4406 1.69531 18.6744 1.69531 22.6705V26.0647C1.69531 30.0608 4.92909 33.2946 8.92516 33.2946C10.1448 33.2946 11.3003 32.9897 12.3114 32.452C10.6905 29.5152 9.77573 26.1369 9.77573 22.5501C9.76771 11.2038 18.9715 2 30.3178 2C41.6641 2 50.8679 11.2038 50.8679 22.5501C50.8679 32.9174 43.1967 41.4873 33.2146 42.8996" stroke="#F57D14" stroke-width="2.40728" stroke-linecap="round" stroke-linejoin="round"/>
  <path d="M53.0747 32.9253C51.855 32.9253 50.6995 32.6204 49.6885 32.0828" stroke="#F57D14" stroke-width="2.40728" stroke-linecap="round" stroke-linejoin="round"/>
  <path d="M53.0747 15.0796C57.0708 15.0796 60.3046 18.3134 60.3046 22.3094V25.7037C60.3046 29.6998 57.0708 32.9335 53.0747 32.9335" stroke="#F57D14" stroke-width="2.40728" stroke-linecap="round" stroke-linejoin="round"/>
  <path d="M51.0686 15.3604C51.7025 15.1759 52.3766 15.0796 53.0747 15.0796" stroke="#F57D14" stroke-width="2.40728" stroke-linecap="round" stroke-linejoin="round"/>
  <path d="M29.732 47C31.6554 47 33.2146 45.4408 33.2146 43.5174C33.2146 41.5941 31.6554 40.0349 29.732 40.0349C27.8087 40.0349 26.2495 41.5941 26.2495 43.5174C26.2495 45.4408 27.8087 47 29.732 47Z" stroke="#F57D14" stroke-width="2.40728" stroke-linecap="round" stroke-linejoin="round"/>
  <path d="M24.4842 24.5802C25.4769 24.5802 26.2816 23.7755 26.2816 22.7828C26.2816 21.7901 25.4769 20.9854 24.4842 20.9854C23.4915 20.9854 22.6868 21.7901 22.6868 22.7828C22.6868 23.7755 23.4915 24.5802 24.4842 24.5802Z" fill="white"/>
  <path d="M30.2777 24.5802C31.2703 24.5802 32.0751 23.7755 32.0751 22.7828C32.0751 21.7901 31.2703 20.9854 30.2777 20.9854C29.285 20.9854 28.4802 21.7901 28.4802 22.7828C28.4802 23.7755 29.285 24.5802 30.2777 24.5802Z" fill="white"/>
  <path d="M36.0711 24.5802C37.0638 24.5802 37.8685 23.7755 37.8685 22.7828C37.8685 21.7901 37.0638 20.9854 36.0711 20.9854C35.0784 20.9854 34.2737 21.7901 34.2737 22.7828C34.2737 23.7755 35.0784 24.5802 36.0711 24.5802Z" fill="white"/>
</svg>
