<?xml version="1.0" encoding="utf-8"?>
<!-- Generator: Adobe Illustrator 28.1.0, SVG Export Plug-In . SVG Version: 6.00 Build 0)  -->
<svg xmlns:xlink="http://www.w3.org/1999/xlink" version="1.1" id="レイヤー_1" xmlns="http://www.w3.org/2000/svg" x="0px"
	 y="0px" viewBox="0 0 28 28" style="enable-background:new 0 0 28 28;" xml:space="preserve">
<style type="text/css">
	.st0{fill:#FFFFFF;}
</style>
<path class="st0" d="M14,0C6.3,0,0,6.3,0,14c0,7.7,6.3,14,14,14s14-6.3,14-14C28,6.3,21.7,0,14,0z M17.5,15.9c0,0.4-0.3,0.7-0.7,0.7
	s-0.7-0.3-0.7-0.7v-3.1l-4.5,4.5c-0.1,0.1-0.3,0.2-0.5,0.2s-0.3-0.1-0.5-0.2c-0.3-0.3-0.3-0.7,0-0.9l4.5-4.5h-3.1
	c-0.4,0-0.7-0.3-0.7-0.7s0.3-0.7,0.7-0.7h4.7l0,0c0.2,0,0.3,0.1,0.5,0.2c0.1,0.1,0.2,0.3,0.2,0.5V15.9z"/>
</svg>
