<svg width="156" height="41" viewBox="0 0 156 41" fill="none" xmlns="http://www.w3.org/2000/svg">
<path d="M53.1244 40.8077H46.8572C46.6032 40.8077 46.3709 40.7097 46.1822 40.5246C45.9935 40.3395 45.8955 40.1037 45.8955 39.8496C45.8955 39.1129 46.0407 38.3726 46.331 37.6432C46.614 36.9211 47.0241 36.2388 47.5431 35.611C48.0692 34.9796 48.7079 34.4389 49.441 33.9997C50.174 33.5498 50.7438 33.1107 51.1176 32.697C51.4805 32.2978 51.7309 31.9167 51.8579 31.5647C51.9885 31.2055 52.0538 30.8607 52.0538 30.5377C52.0538 30.0115 51.8869 29.6015 51.5422 29.2894C51.1829 28.9664 50.7148 28.8067 50.116 28.8067C49.5571 28.8067 49.0999 28.9301 48.7079 29.1841C48.3233 29.4345 48.0438 29.7938 47.8515 30.2873C47.7499 30.5377 47.5721 30.7228 47.3289 30.8244C47.0858 30.926 46.8281 30.926 46.5923 30.8208C46.3636 30.7301 46.1786 30.5522 46.077 30.3091C45.9753 30.0732 45.9753 29.8156 46.077 29.5724C46.4181 28.7305 46.9479 28.07 47.6519 27.5983C48.3559 27.1301 49.1833 26.8906 50.116 26.8906C50.8454 26.8906 51.5095 27.043 52.0901 27.3442C52.678 27.6527 53.1462 28.0882 53.4764 28.6434C53.8066 29.1986 53.9736 29.8337 53.9736 30.5377C53.9736 31.4921 53.6869 32.403 53.1171 33.2558C52.5655 34.0832 51.6619 34.8816 50.4317 35.6291C49.695 36.0791 49.0926 36.6634 48.639 37.371C48.3124 37.8827 48.0838 38.3908 47.9531 38.8916H53.1208C53.3893 38.8916 53.6252 38.9859 53.803 39.1674C53.9844 39.3452 54.0788 39.5847 54.0788 39.8496C54.0788 40.1 53.9881 40.3286 53.8139 40.5137C53.6288 40.7061 53.3893 40.8077 53.1171 40.8077H53.1244Z" fill="#303030"/>
<path d="M59.083 40.92C58.1794 40.92 57.4391 40.6987 56.8766 40.2596C56.3322 39.835 55.9185 39.2616 55.6464 38.5576C55.3923 37.8971 55.2218 37.1459 55.1383 36.3294C55.0585 35.5456 55.0186 34.7254 55.0186 33.898C55.0186 33.0706 55.0585 32.2505 55.1383 31.4666C55.2181 30.6501 55.3923 29.8989 55.6464 29.2384C55.9185 28.5344 56.3322 27.961 56.8766 27.5364C57.4391 27.0973 58.1794 26.876 59.083 26.876C59.9866 26.876 60.6834 27.0865 61.2386 27.5074C61.7793 27.9139 62.193 28.4763 62.4652 29.1767C62.7192 29.8299 62.8898 30.5811 62.9732 31.4049C63.0531 32.2033 63.093 33.0416 63.093 33.898C63.093 34.7544 63.0531 35.6109 62.9732 36.4092C62.8898 37.2366 62.7192 37.9842 62.4652 38.6302C62.1894 39.3269 61.7793 39.8822 61.2386 40.2886C60.6834 40.7059 59.9576 40.92 59.083 40.92ZM59.083 28.7776C58.7999 28.7776 58.5278 28.8284 58.2701 28.93C58.0524 29.0171 57.8419 29.2058 57.6495 29.4925C57.4354 29.8082 57.2649 30.3162 57.1342 30.9985C56.9963 31.717 56.9274 32.6896 56.9274 33.8944C56.9274 35.0992 56.9963 36.0899 57.1342 36.7975C57.2649 37.4725 57.4391 37.977 57.6532 38.2963C57.8455 38.583 58.056 38.7753 58.2737 38.8588C58.8326 39.0802 59.4713 39.0584 59.943 38.837C60.1644 38.7354 60.364 38.5249 60.5382 38.2201C60.7378 37.8717 60.8938 37.3528 61.01 36.6814C61.1297 35.9774 61.1914 35.0375 61.1914 33.8907C61.1914 32.744 61.1297 31.8041 61.01 31.1037C60.8938 30.4324 60.7342 29.9134 60.5382 29.565C60.364 29.2602 60.1644 29.0497 59.943 28.9481C59.6926 28.8284 59.4096 28.7739 59.0866 28.7739L59.083 28.7776Z" fill="#303030"/>
<path d="M71.3197 40.7857H65.0525C64.7985 40.7857 64.5662 40.6877 64.3775 40.5027C64.1888 40.314 64.0908 40.0817 64.0908 39.8277C64.0908 39.091 64.236 38.3507 64.5263 37.6213C64.8094 36.9027 65.2194 36.2169 65.7384 35.5891C66.2646 34.9576 66.9033 34.4133 67.6363 33.9778C68.3694 33.5278 68.9355 33.0887 69.3129 32.675C69.6758 32.2758 69.9262 31.8948 70.0532 31.5428C70.1838 31.1835 70.2492 30.8388 70.2492 30.5158C70.2492 29.9896 70.0822 29.5795 69.7375 29.2674C69.3782 28.9444 68.9101 28.7848 68.3113 28.7848C67.7524 28.7848 67.2952 28.9082 66.9033 29.1622C66.5186 29.4126 66.2392 29.7718 66.0468 30.2654C65.9452 30.5158 65.7674 30.7009 65.5279 30.8025C65.2811 30.9041 65.0271 30.9041 64.7912 30.8025C64.5626 30.7117 64.3775 30.5339 64.2759 30.2944C64.1743 30.0549 64.1743 29.8009 64.2723 29.5541C64.6134 28.7122 65.1432 28.0517 65.8472 27.58C66.5513 27.1118 67.3787 26.8723 68.3113 26.8723C69.0407 26.8723 69.7048 27.0247 70.2854 27.3259C70.8733 27.6344 71.3415 28.0699 71.6717 28.6251C72.0019 29.1803 72.1689 29.8154 72.1689 30.5194C72.1689 31.4738 71.8822 32.3847 71.3124 33.2375C70.7608 34.0649 69.8572 34.8633 68.627 35.6108C67.8903 36.0608 67.2879 36.6487 66.8343 37.3527C66.5077 37.8644 66.2791 38.3725 66.1448 38.8733H71.3124C71.581 38.8733 71.8169 38.9676 71.9947 39.1491C72.1761 39.3269 72.2705 39.5664 72.2705 39.8313C72.2705 40.0781 72.1798 40.3103 72.0092 40.4918C71.8241 40.6877 71.5846 40.7894 71.3124 40.7894L71.3197 40.7857Z" fill="#303030"/>
<path d="M78.3201 40.9129C78.0733 40.9129 77.8447 40.8221 77.6632 40.6516C77.4709 40.4701 77.3693 40.2379 77.3693 39.9766V37.6323H72.7133C72.3613 37.6323 72.0638 37.4508 71.8932 37.1351C71.7009 36.8267 71.719 36.4565 71.9513 36.1444L77.5181 27.3152C77.6451 27.1083 77.8447 26.9668 78.0914 26.9051C78.3527 26.8398 78.6068 26.8869 78.8354 27.0394C79.1257 27.2571 79.2745 27.5329 79.2745 27.8341C79.2745 27.845 79.2745 27.8559 79.2745 27.8668C79.2745 27.8777 79.2745 27.8922 79.2745 27.9031V35.7271H80.5882C80.8603 35.7271 81.0962 35.8251 81.2704 36.0138C81.4373 36.1916 81.5244 36.4202 81.5244 36.6815C81.5244 36.921 81.441 37.1424 81.2849 37.3238C81.1107 37.527 80.8676 37.6323 80.5882 37.6323H79.2745V39.9766C79.2745 40.2306 79.1801 40.4592 79.0023 40.6371C78.8209 40.8149 78.5886 40.9092 78.3237 40.9092L78.3201 40.9129ZM74.4443 35.7307H77.3693V31.0856C77.1951 31.3651 77.0282 31.63 76.8721 31.8804C76.2661 32.8493 75.7689 33.6368 75.3879 34.2392C75.0068 34.8416 74.7129 35.3025 74.5097 35.6291L74.448 35.7271L74.4443 35.7307Z" fill="#303030"/>
<path d="M45.6345 10.5312C45.4494 10.3135 45.4531 9.99777 45.6345 9.78003C45.7071 9.68931 45.7869 9.60947 45.8414 9.54415C48.2183 7.02566 50.2179 3.73782 51.3429 0.475393C51.4445 0.224995 51.4917 0 51.7929 0L53.8214 0.772968C53.9847 0.83466 54.0573 1.02699 53.9739 1.17941C53.836 1.43707 53.6727 1.7673 53.5674 1.9923C52.9904 3.36404 52.134 4.99707 51.361 6.29261L51.3683 8.41918V18.2137C51.3683 19.3097 51.4191 20.4056 51.4191 21.4762C51.4191 22.2237 51.1433 22.3471 50.1199 22.3471C49.0965 22.3471 48.8425 22.1729 48.8425 21.4762C48.8425 20.3802 48.8933 19.3097 48.8933 18.2137V10.6873C48.8933 10.5639 48.8425 10.4115 48.6937 10.4115C48.5921 10.4115 48.5449 10.4369 48.4941 10.5095C48.3054 10.7453 47.83 11.355 47.4091 11.7179C47.1659 11.9284 46.7994 11.8921 46.5926 11.6489L45.6382 10.524L45.6345 10.5312ZM61.4749 11.2135C61.4749 11.6852 61.6745 11.8848 62.1753 11.8848H63.1769C64.0769 11.8848 64.9551 11.834 65.8551 11.834C66.53 11.834 66.4792 12.2078 66.4792 13.0316C66.4792 13.8554 66.5046 14.2291 65.8297 14.2291C64.9551 14.2291 64.0805 14.1529 63.1769 14.1529H62.1753C61.6745 14.1529 61.4749 14.3779 61.4749 14.8497V19.2371C61.4749 19.6218 61.787 19.9339 62.1717 19.9339H64.3998C65.3506 19.9339 66.276 19.883 67.2014 19.883C67.851 19.883 67.8256 20.2314 67.8256 21.1024C67.8256 21.9733 67.851 22.3217 67.2014 22.3217C66.276 22.3217 65.3506 22.2709 64.3998 22.2709H56.0206C55.0952 22.2709 54.1444 22.3217 53.219 22.3217C52.5695 22.3217 52.5949 21.9733 52.5949 21.1024C52.5949 20.1552 52.5949 19.883 53.2444 19.883C54.1698 19.883 55.0952 19.9339 56.0206 19.9339H58.198C58.5863 19.9339 58.8984 19.6218 58.8984 19.2335V14.8497C58.8984 14.3779 58.6988 14.1529 58.198 14.1529H57.396C56.5214 14.1529 55.6214 14.2291 54.7468 14.2291C54.0718 14.2291 54.0972 13.9062 54.0972 13.0316C54.0972 12.2078 54.0718 11.834 54.7214 11.834C55.6214 11.834 56.496 11.8848 57.396 11.8848H58.198C58.6988 11.8848 58.8984 11.6852 58.8984 11.2135V7.95104C58.8984 7.47928 58.6988 7.27968 58.198 7.27968H56.4706C55.6686 7.27968 54.8448 7.33049 54.0174 7.33049C53.3678 7.33049 53.3932 7.00751 53.3932 6.11116C53.3932 5.21481 53.3678 4.91361 54.0428 4.91361C54.8448 4.91361 55.6686 4.96441 56.4706 4.96441H59.5987C59.7729 4.93901 59.9507 4.8882 59.9507 4.68861C59.9507 4.59063 59.9253 4.53982 59.8745 4.46361C59.0979 3.61807 58.2996 2.8197 57.4468 2.07213C57.298 1.92335 57.0984 1.74916 57.0984 1.54956C57.0984 1.17578 58.2488 0.156045 58.7496 0.156045C59.1487 0.156045 60.5241 1.60037 60.8507 1.92335C61.1519 2.22092 62.3023 3.36767 62.3023 3.74145C62.3023 4.01725 61.7507 4.46361 61.5511 4.6378C61.5003 4.68861 61.4749 4.71401 61.4749 4.78659C61.4749 4.90998 61.5729 4.96078 61.6745 4.96078H64.1749C64.9986 4.96078 65.826 4.90998 66.628 4.90998C67.3284 4.90998 67.2776 5.25836 67.2776 6.1293C67.2776 7.00025 67.303 7.32686 66.628 7.32686C65.826 7.32686 65.0023 7.27605 64.1749 7.27605H62.1753C61.6745 7.27605 61.4749 7.47565 61.4749 7.94741V11.2098V11.2135Z" fill="#303030"/>
<path d="M85.2697 8.60797C84.1701 9.03255 82.6169 9.50432 80.6428 10.0269C80.1674 10.2011 80.0186 10.4007 80.0186 10.8978V12.5164C80.0186 12.8647 80.1674 13.1151 80.5702 13.1151H80.6718L87.6249 12.2188C88.0241 12.168 90.3502 11.8196 90.4519 11.8196C91.1268 11.8196 91.2284 13.2385 91.2284 13.7393C91.2284 14.2401 90.9272 14.2619 89.8023 14.3635C89.3523 14.4143 88.7753 14.4615 88.0277 14.5631L80.6754 15.4848C80.2001 15.5356 80.0259 15.7824 80.0259 16.2578V18.838C80.0259 19.836 80.2 20.0101 81.2524 20.0101H86.079C87.2293 20.0101 87.4797 19.7851 87.8063 17.4445C87.9043 16.8203 87.9805 16.6969 88.4559 16.6969C88.9567 16.6969 90.3067 16.8203 90.3067 17.4699C90.3067 18.192 89.6063 20.7831 89.1563 21.3819C88.5067 22.2274 87.7047 22.329 86.7285 22.329H80.5267C78.3493 22.329 77.4747 21.9553 77.4747 19.7634V16.5844C77.4747 16.236 77.3259 15.9856 76.9231 15.9856H76.8251L72.347 16.559C72.0458 16.6098 69.647 16.9582 69.5962 16.9582C68.8451 16.9582 68.7471 15.6118 68.7471 15.0639C68.7471 14.5667 69.0229 14.5413 70.1732 14.4397C70.5978 14.3889 71.1748 14.3417 71.9224 14.2401L76.8251 13.6159C77.3005 13.5651 77.4747 13.3184 77.4747 12.843V11.4712C77.4747 11.1482 77.3477 10.8724 76.9739 10.8724C76.9231 10.8724 76.7743 10.9232 76.7235 10.9232C75.6747 11.1228 73.0982 11.5728 72.1474 11.5728C71.3962 11.5728 71.1458 10.0523 71.1458 9.78012C71.1458 9.38093 71.4942 9.25755 72.3216 9.18134C75.6239 8.88377 81.4012 7.73702 84.3044 6.29269C84.4314 6.24189 84.6818 6.0931 84.8052 6.0931C85.0302 6.0931 85.8794 7.16364 86.1298 7.46485C86.2241 7.58097 86.3366 7.70073 86.431 7.81685C86.558 7.9729 86.489 8.20878 86.2967 8.2741L85.2806 8.6116L85.2697 8.60797ZM78.6323 0.377496C78.6323 0.0545194 78.8319 0.00371402 79.0823 0.00371402C79.5251 0.00371402 80.3561 -0.00354389 80.9585 0.00371402C81.1182 0.00371402 81.2488 0.137985 81.2452 0.301288L81.2125 1.85448V2.10488C81.2633 2.57664 81.4375 2.77624 81.9129 2.77624H86.1915C87.1168 2.77624 88.0422 2.75083 88.9676 2.75083C89.668 2.75083 90.3938 2.92502 90.3938 3.7488C90.3938 3.94839 90.343 4.54717 90.343 5.12054V6.53946C90.343 6.88784 90.3938 7.31243 90.3938 7.61C90.3938 8.20878 89.9692 8.15798 89.0438 8.15798C88.1184 8.15798 87.6938 8.18338 87.6938 7.61C87.6938 7.26162 87.7701 6.88784 87.7701 6.53946V5.8173C87.7701 5.32013 87.5451 5.12054 87.0697 5.12054H72.7861C72.3107 5.12054 72.0857 5.32013 72.0857 5.8173V6.46688C72.0857 6.78986 72.1619 7.29066 72.1619 7.56283C72.1619 8.1362 71.6865 8.1108 70.7865 8.1108C69.8358 8.1108 69.4366 8.1108 69.4366 7.53743C69.4366 7.21445 69.5128 6.81526 69.5128 6.46688V5.12054C69.5128 4.52176 69.462 4.0246 69.462 3.7488C69.462 2.87785 70.1878 2.72543 71.4615 2.72543C72.0603 2.72543 72.8115 2.77624 73.6643 2.77624H77.9428C78.3311 2.77624 78.6432 2.46052 78.6432 2.07222L78.636 0.377496H78.6323Z" fill="#303030"/>
<path d="M110.749 5.98394C110.861 6.11095 110.839 6.30691 110.705 6.40852L109.823 7.06537C108.147 8.21212 107.196 8.83267 105.371 9.80523C105.32 9.85603 105.273 9.88143 105.273 9.95401C105.273 10.0774 105.371 10.1028 105.472 10.1282H109.25C109.925 10.1282 110.625 10.0774 111.3 10.0774C111.975 10.0774 112.476 10.2516 112.476 11.05C112.476 11.5979 112.425 12.1459 112.425 12.6939V20.0461C112.425 20.6703 112.476 21.1602 112.476 21.7844C112.476 22.307 112.226 22.307 111.199 22.307C110.172 22.307 109.896 22.3324 109.896 21.8098V21.5122C109.896 21.338 109.754 21.1965 109.58 21.1965H101.542C101.241 21.1965 101.125 21.2328 101.125 21.5594C101.15 22.2816 101.074 22.3324 99.8255 22.3324C98.7985 22.3324 98.5481 22.307 98.5481 21.7844C98.5481 21.1602 98.5663 20.6522 98.5663 20.028V13.4487C98.5409 13.1729 98.4393 12.9515 98.1417 12.9515C98.0655 12.9515 97.9929 12.9769 97.9167 12.9769C97.3397 13.1765 95.0389 13.9495 94.5635 13.9495C93.9139 13.9495 93.2861 12.5306 93.2861 12.1568C93.2861 11.7576 93.7361 11.685 94.0373 11.6088C98.1889 10.6363 105.643 8.09599 108.546 4.95694C108.626 4.87711 108.778 4.69566 108.931 4.57227C109.047 4.47792 109.214 4.48518 109.319 4.59042L110.752 5.99482L110.749 5.98394ZM100.239 3.27674C99.038 4.86985 97.6373 6.3178 96.0369 7.53713C95.7865 7.73672 95.4853 7.96172 95.1623 7.96172C94.6107 7.96172 93.4131 7.13794 93.4131 6.64078C93.4131 6.41578 93.7144 6.24159 93.8885 6.11821C95.6159 4.97146 97.3651 3.27674 98.4901 1.53484C98.5663 1.41145 98.6642 1.25904 98.8384 1.25904C99.0634 1.25904 100.058 2.02475 100.555 2.39127C100.686 2.48925 100.711 2.67433 100.609 2.80134L100.239 3.27674ZM105.643 2.40579V3.85011C105.643 4.37268 105.694 4.89525 105.694 5.42145C105.694 6.3432 105.494 7.06537 104.594 7.48995C104.042 7.74035 102.769 7.93994 102.141 7.93994C101.114 7.93994 100.617 7.96535 100.366 7.51536C100.167 7.16698 100.065 6.64441 100.065 6.21982C100.065 5.82063 100.141 5.57024 100.591 5.57024C100.965 5.57024 101.342 5.59564 101.716 5.59564C103.142 5.59564 103.117 5.31984 103.117 4.0243V2.40579C103.117 1.85782 103.179 1.18646 103.102 0.638486C103.077 0.587681 103.088 0.475183 103.088 0.402604C103.088 0.10503 103.338 0.0288216 103.589 0.0288216C103.814 0.0288216 104.794 0.0179348 105.345 0.0324506C105.501 0.0360795 105.625 0.163093 105.625 0.319138L105.643 2.40216V2.40579ZM109.344 13.3181C109.674 13.3181 109.943 13.0495 109.943 12.7193V12.5959C109.943 12.2657 109.674 11.9971 109.344 11.9971H101.636C101.306 11.9971 101.038 12.2657 101.038 12.5959V12.7447C101.038 13.0604 101.295 13.3181 101.611 13.3181H109.344ZM101.041 15.6841C101.041 16.0144 101.31 16.2829 101.64 16.2829H109.348C109.678 16.2829 109.947 16.0144 109.947 15.6841V15.5353C109.947 15.2051 109.678 14.9366 109.348 14.9366H101.64C101.31 14.9366 101.041 15.2051 101.041 15.5353V15.6841ZM101.041 18.7252C101.041 19.0409 101.299 19.2986 101.615 19.2986H109.373C109.689 19.2986 109.947 19.0409 109.947 18.7252V18.5002C109.947 18.17 109.678 17.9014 109.348 17.9014H101.64C101.31 17.9014 101.041 18.17 101.041 18.5002V18.7216V18.7252ZM113.423 7.76212C113.173 7.76212 112.999 7.56253 112.872 7.38834C111.569 5.81701 110.095 4.39808 108.495 3.10255C108.321 2.95376 108.07 2.75417 108.07 2.50377C108.07 2.07918 109.072 1.33162 109.471 1.33162C109.747 1.33162 109.921 1.4804 110.146 1.65459C110.948 2.30418 111.721 2.97553 112.447 3.6977C112.897 4.12228 114.897 6.06377 114.897 6.53917C114.897 7.01456 113.822 7.7585 113.42 7.7585L113.423 7.76212Z" fill="#303030"/>
<path d="M130.447 5.14574C131.546 5.14574 132.624 5.09494 133.724 5.09494C134.224 5.09494 134.373 5.24372 134.373 6.16548V6.76426C134.373 7.53722 134.297 7.8094 133.597 7.8094C132.57 7.8094 131.546 7.75859 130.494 7.75859H128.494C128.07 7.75859 127.743 8.08157 127.743 8.50616V15.4846C127.743 15.8838 128.07 16.2068 128.494 16.2068H132.395C133.422 16.2068 134.798 16.156 135.545 16.156C136.17 16.156 136.195 16.381 136.195 17.6003C136.195 18.3987 136.195 18.8959 135.495 18.8959C134.743 18.8959 133.47 18.8196 132.392 18.8196H120.286C119.211 18.8196 117.934 18.8959 117.183 18.8959C116.482 18.8959 116.482 18.4241 116.482 17.5749C116.482 16.3774 116.508 16.156 117.132 16.156C117.883 16.156 119.233 16.2068 120.286 16.2068H124.187C124.611 16.2068 124.938 15.8838 124.938 15.4846V8.50616C124.938 8.08157 124.611 7.75859 124.187 7.75859H122.187C121.135 7.75859 120.111 7.8094 119.084 7.8094C118.384 7.8094 118.308 7.5336 118.308 6.78603V6.18725C118.308 5.2401 118.457 5.09131 118.957 5.09131C120.032 5.09131 121.135 5.14211 122.209 5.14211H130.439L130.447 5.14574Z" fill="#303030"/>
<path d="M150.49 5.24014C150.929 5.24014 151.416 5.26191 151.807 5.17119C151.855 5.17119 151.924 5.14942 151.971 5.14942C152.479 5.14942 153.495 6.41592 153.495 6.69172C153.495 6.89857 153.219 7.10542 153.078 7.24332C153.009 7.2905 152.914 7.38122 152.871 7.45017C151.717 8.64773 150.305 9.93601 149.01 10.9485C148.523 11.3186 148.501 11.569 148.501 12.1678V16.8165C148.501 17.6911 148.549 18.5657 148.549 19.4402C148.549 20.2241 148.57 20.293 147.068 20.293C146.143 20.293 146.005 20.1334 146.005 19.6943C146.005 18.7507 146.074 17.8072 146.074 16.8637V13.7319C146.074 13.525 145.91 13.34 145.704 13.34C145.518 13.34 145.355 13.4561 145.217 13.525C144.361 14.0766 140.362 16.2649 139.578 16.2649C139.07 16.2649 138.054 14.9984 138.054 14.5375C138.054 14.2399 138.377 14.1238 138.609 14.0549C141.683 13.0424 145.522 10.992 147.924 8.85095C148.157 8.6441 148.872 8.0925 148.872 7.86024C148.872 7.53727 148.433 7.60622 148.131 7.60622H143.809C142.815 7.60622 141.821 7.65339 140.826 7.65339C140.202 7.65339 140.249 7.26147 140.249 6.33971C140.249 5.51231 140.202 5.18933 140.779 5.18933C141.08 5.18933 141.381 5.21111 141.683 5.21111C142.376 5.23288 143.094 5.23288 143.809 5.23288H150.49V5.24014ZM148.2 1.83255C148.501 2.10835 149.703 3.18978 149.703 3.53453C149.703 3.92646 148.592 4.98611 148.2 4.98611C147.968 4.98611 147.808 4.82644 147.645 4.66314C146.789 3.76678 145.889 2.91398 144.916 2.15553C144.731 2.01763 144.455 1.83255 144.455 1.60393C144.455 1.25918 145.609 0.152344 146.005 0.152344C146.375 0.152344 147.856 1.50957 148.2 1.83255ZM154.395 12.9263C154.696 13.2021 155.992 14.3996 155.992 14.7444C155.992 15.1363 154.812 16.2395 154.42 16.2395C154.144 16.2395 153.934 15.9419 153.774 15.7569C152.827 14.6282 151.949 13.8226 150.791 12.948C150.697 12.8573 150.537 12.7194 150.537 12.5779C150.537 12.2114 151.717 11.1263 152.087 11.1263C152.457 11.1263 154.05 12.5997 154.399 12.9226L154.395 12.9263Z" fill="#303030"/>
<path d="M89.7514 40.158C89.7986 40.5064 89.8567 40.9419 90.3103 40.9419C90.5679 40.9419 91.0651 40.833 91.4316 40.7423L91.4824 40.7241C91.6566 40.6624 91.9252 40.5681 91.9252 40.2306C91.9252 40.06 91.7147 39.1564 91.4897 38.1149C91.4062 37.7375 91.3373 37.4109 91.3119 37.2657L91.1159 36.1843C91.1014 36.1081 91.1159 36.0319 91.1558 35.9738C91.1812 35.9375 91.232 35.8903 91.3155 35.8795L93.707 35.5347C94.1642 35.4658 94.5925 35.415 95.0134 35.3714C95.9969 35.2589 96.3271 35.2226 96.3271 34.6964C96.3271 34.5876 96.3053 34.417 96.2908 34.2718L96.2763 34.1557C96.269 34.123 96.2654 34.0904 96.2618 34.065C96.2581 34.0251 96.2509 33.9851 96.2436 33.9452C96.1964 33.5932 96.1384 33.2013 95.6811 33.2013C95.634 33.2013 95.467 33.2267 94.6287 33.3682C94.1316 33.4517 93.5691 33.546 93.4276 33.5606L90.9744 33.9053C90.7966 33.9271 90.655 33.8218 90.6224 33.6513L90.2776 31.8513C90.2631 31.7824 90.2776 31.7062 90.3212 31.6481C90.3466 31.6082 90.3974 31.561 90.4808 31.5501L91.809 31.3542C92.2409 31.2852 92.4006 31.2852 92.6909 31.2562L92.9413 31.2308C93.8449 31.1219 94.1824 31.082 94.1824 30.5957C94.1824 30.4288 94.1207 30.0804 94.0808 29.8481L94.0481 29.6667C94.0082 29.4417 93.9392 29.0679 93.5328 29.0679C93.4022 29.0679 91.526 29.3764 91.5115 29.38L90.1542 29.576C89.9401 29.5977 89.8385 29.4381 89.7986 29.282L89.7369 29.0207C89.726 28.9482 89.7006 28.803 89.6752 28.6397C89.6244 28.3457 89.5409 27.8522 89.5409 27.7325L89.4865 27.3006C89.4502 27.0321 89.1998 26.8252 88.9494 26.8361L87.8716 26.8688C87.7156 26.8724 87.5704 26.945 87.4724 27.0684C87.3745 27.1917 87.3382 27.3478 87.3672 27.5002C87.418 27.7506 87.4652 28.0482 87.5124 28.3276C87.5632 28.6361 87.6103 28.9264 87.6503 29.1006L87.7374 29.5179C87.7482 29.5832 87.7591 29.6413 87.7591 29.703C87.7591 29.8336 87.672 29.9389 87.545 29.957L86.1696 30.153C85.5818 30.2328 85.364 30.2836 85.0193 30.3163C84.1483 30.4179 83.7854 30.4578 83.7854 30.9259C83.7854 31.0856 83.8399 31.4304 83.8834 31.7062L83.9197 31.9348C83.9778 32.2687 84.1701 32.4682 84.4314 32.4682C84.5656 32.4682 86.4128 32.1453 86.4273 32.1416L87.8716 31.9275C88.0603 31.8949 88.2127 32.0001 88.249 32.1961L88.5793 33.9779C88.5938 34.0541 88.5793 34.1267 88.5394 34.1811C88.4994 34.2355 88.4414 34.2682 88.3615 34.2791L85.7995 34.671C85.3314 34.7363 84.8923 34.7908 84.464 34.8343C83.6149 34.9142 83.2266 34.9504 83.2266 35.4295C83.2266 35.6254 83.3427 36.3621 83.3935 36.5327C83.4298 36.6815 83.5096 36.9899 83.9052 36.9899C84.0068 36.9899 84.5439 36.9028 85.5636 36.7323C85.7995 36.6923 85.9918 36.6597 86.0753 36.6452L88.699 36.2532C88.8696 36.2315 89.0329 36.3476 89.0655 36.5073L89.2797 37.6504C89.3958 38.2855 89.5954 39.2762 89.7115 39.9439L89.7442 40.1544L89.7514 40.158Z" fill="#303030"/>
<path d="M106.825 32.3775C106.806 32.3775 106.524 32.4356 105.98 32.5517C105.711 32.6098 105.468 32.6606 105.399 32.6751L102.743 33.2122C102.67 33.2267 102.594 33.2122 102.536 33.1759C102.474 33.136 102.434 33.0706 102.42 32.9872L102.271 32.2469C102.198 31.9348 102.061 31.2852 102.057 31.1219L101.977 30.7517C101.948 30.6102 101.861 30.4905 101.738 30.4142C101.614 30.338 101.469 30.3163 101.331 30.3489L100.478 30.5594C100.34 30.5921 100.224 30.6792 100.152 30.8025C100.079 30.9223 100.057 31.0675 100.094 31.2054C100.112 31.2816 100.134 31.365 100.152 31.4594C100.268 31.9312 100.395 32.4973 100.413 32.5807L100.576 33.3356C100.594 33.4227 100.584 33.4989 100.544 33.5606C100.504 33.6222 100.435 33.6658 100.348 33.6803L99.2009 33.9089C98.8779 33.9743 98.6166 34.0214 98.388 34.0541C97.3828 34.2246 97.1143 34.2682 97.1143 34.6783C97.1143 34.867 97.2522 35.5274 97.3102 35.6944C97.3647 35.8141 97.4626 36.0428 97.7784 36.0428C97.88 36.0428 99.4513 35.7162 99.5348 35.698L100.75 35.4476C100.75 35.4476 100.783 35.4404 100.794 35.4404C100.936 35.4404 101.037 35.5238 101.07 35.6617L101.687 38.71C101.738 38.9568 101.777 39.1854 101.81 39.385C101.828 39.5012 101.846 39.6064 101.865 39.6935C101.966 40.3757 102.046 40.9164 102.525 40.9164C102.721 40.9164 103.225 40.8076 103.396 40.7604C103.65 40.6806 103.911 40.6007 103.911 40.2523C103.911 40.0346 103.744 39.3016 103.574 38.5721L102.902 35.3097V35.1936C102.902 35.0702 102.997 34.9577 103.127 34.9359L105.033 34.5549C105.08 34.5404 105.123 34.5295 105.174 34.5113C105.12 34.6819 104.3 35.7452 104.1 35.9629C104.085 35.9847 104.071 36.0065 104.053 36.0282C103.977 36.1262 103.875 36.2605 103.875 36.4165C103.875 36.881 104.902 37.2403 105.16 37.2403C105.396 37.2403 105.537 37.1133 105.624 37.0117C105.827 36.8085 106.524 35.7416 106.662 35.5311C106.992 35.0303 107.402 34.4061 107.809 33.9851C107.87 33.9343 108.052 33.7819 108.052 33.5424C108.052 33.136 107.188 32.3594 106.833 32.3594L106.825 32.3775Z" fill="#303030"/>
<path d="M109.588 29.6414L109.682 29.4962L109.592 29.6414C110.212 30.0188 111.308 30.7519 111.744 31.1402C111.987 31.3615 112.317 31.6264 112.516 31.6264C112.927 31.6264 113.768 30.6648 113.768 30.1966C113.768 30.0224 113.638 29.7757 112.698 29.1261C111.428 28.1934 110.669 27.7217 110.448 27.7217C109.933 27.7217 109.243 28.8793 109.243 29.1841C109.243 29.4237 109.439 29.547 109.584 29.6378L109.588 29.6414Z" fill="#303030"/>
<path d="M120.137 30.3381C119.992 30.3381 119.858 30.418 119.723 30.5813C117.484 33.4264 113.01 36.5618 109.533 37.7231C109.374 37.7775 109.25 37.8972 109.196 38.0533C109.141 38.2057 109.16 38.3726 109.247 38.5105L109.918 39.5847C110.02 39.7444 110.19 39.8351 110.368 39.8351C110.459 39.8351 110.549 39.8133 110.633 39.7662C110.789 39.6754 110.96 39.5956 111.232 39.465L111.359 39.4033C115.035 37.7013 117.796 35.7925 120.308 33.2123L120.344 33.176C120.874 32.6498 121.229 32.2397 121.229 31.9639C121.229 31.6881 120.616 30.3381 120.141 30.3381H120.137Z" fill="#303030"/>
<path d="M132.697 32.4428C133.687 32.4428 134.489 31.6335 134.489 30.6392C134.489 29.6448 133.684 28.8501 132.697 28.8501C131.71 28.8501 130.886 29.6521 130.886 30.6392C130.886 31.6262 131.699 32.4428 132.697 32.4428ZM132.697 29.946C133.074 29.946 133.393 30.2654 133.393 30.6392C133.393 31.013 133.081 31.3504 132.697 31.3504C132.312 31.3504 131.982 31.0384 131.982 30.6392C131.982 30.24 132.301 29.946 132.697 29.946Z" fill="#303030"/>
<path d="M134.533 35.9303L134.42 36.0573L134.518 35.9194H134.515C132.737 34.7327 131.227 33.2449 129.576 31.5647L129.467 31.4522C128.846 30.8135 128.142 30.0913 127.159 30.0913C126.517 30.0913 125.856 30.4651 125.49 30.7844C125.254 30.9804 125.014 31.1909 124.767 31.405C123.904 32.1562 123.007 32.9328 122.078 33.459C121.842 33.5896 121.596 33.7493 121.596 33.967C121.596 34.319 122.757 35.6581 123.16 35.6581C123.381 35.6581 123.526 35.513 123.632 35.4041L123.661 35.3751C124.241 34.7509 125.319 33.7203 126.052 33.0634C126.321 32.8239 126.825 32.3776 127.159 32.3776C127.369 32.3776 127.605 32.6243 127.779 32.8021L127.87 32.8929C129.271 34.3698 130.65 35.8069 132.123 37.1605C132.751 37.7411 133.118 37.9915 133.354 37.9915C133.941 37.9915 134.852 36.7577 134.852 36.3839C134.852 36.1553 134.66 36.0174 134.533 35.9303Z" fill="#303030"/>
<path d="M142.125 32.9001C142.074 32.9001 141.958 32.9074 141.806 32.9146C141.526 32.9291 141.127 32.9509 140.811 32.9509L137.788 32.9945C137.505 32.9945 137.103 32.9763 136.816 32.9582C136.653 32.9509 136.522 32.9437 136.471 32.9437C136.003 32.9437 136.003 33.2993 136.003 34.1594C136.003 34.6456 136.003 35.1464 136.46 35.1464C136.685 35.1464 136.914 35.1392 137.139 35.1283C137.357 35.121 137.574 35.1138 137.788 35.1138L140.811 35.0702C141.025 35.0702 141.243 35.0775 141.461 35.0847C141.686 35.092 141.911 35.1029 142.136 35.1029C142.593 35.1029 142.593 34.6166 142.593 34.0977C142.593 33.2231 142.593 32.8965 142.125 32.8965V32.9001Z" fill="#303030"/>
<path d="M144.451 29.6414L144.546 29.4962L144.455 29.6414C145.075 30.0224 146.171 30.7519 146.607 31.1402C146.85 31.3615 147.177 31.6264 147.38 31.6264C147.79 31.6264 148.632 30.6648 148.632 30.1966C148.632 30.0261 148.505 29.7793 147.561 29.1261C146.291 28.1934 145.533 27.7217 145.311 27.7217C144.796 27.7217 144.106 28.8793 144.106 29.1841C144.106 29.4237 144.302 29.547 144.448 29.6378L144.451 29.6414Z" fill="#303030"/>
<path d="M154.801 30.3853C154.59 30.3309 154.438 30.5667 154.387 30.6284C151.901 33.7856 147.804 36.638 144.426 37.6251C144.386 37.6359 144.342 37.6468 144.302 37.6577C144.088 37.7121 143.798 37.7884 143.798 38.0642C143.798 38.2674 144.313 39.3452 144.418 39.5593C144.509 39.748 144.694 39.8569 144.89 39.8569C144.966 39.8569 145.039 39.8423 145.112 39.8097L146.022 39.396C149.699 37.694 152.46 35.7852 154.971 33.205L155.004 33.1723C155.534 32.6461 155.777 32.2869 155.919 32.0473C155.988 31.9312 156.02 31.6917 155.988 31.6082C155.824 31.1655 155.49 30.5558 154.797 30.378L154.801 30.3853Z" fill="#303030"/>
<path d="M19.1393 29.8406H12.5564C12.716 29.162 13.0172 28.4725 13.46 27.7758C14.0297 26.883 14.7954 26.1391 15.7281 25.5694C17.2486 24.6476 18.3627 23.6642 19.0413 22.648C19.7381 21.6065 20.0901 20.4852 20.0901 19.3203C20.0901 18.4639 19.8868 17.6909 19.484 17.0159C19.0812 16.3409 18.5151 15.8111 17.7966 15.4373C17.0925 15.0708 16.2797 14.8821 15.3869 14.8821C14.2474 14.8821 13.235 15.1724 12.3749 15.7458C11.5148 16.3191 10.8689 17.132 10.4516 18.1554C10.3391 18.4348 10.3391 18.7251 10.4516 18.9901C10.5677 19.2622 10.7745 19.4654 11.0358 19.5671C11.3044 19.6868 11.591 19.6868 11.8669 19.5707C12.139 19.4582 12.3422 19.2477 12.4584 18.9647C12.7051 18.3296 13.068 17.8615 13.5652 17.5385C14.0696 17.2082 14.6648 17.0486 15.3797 17.0486C16.1563 17.0486 16.7623 17.2554 17.2304 17.68C17.6841 18.0901 17.9054 18.6235 17.9054 19.3167C17.9054 19.734 17.822 20.1767 17.655 20.634C17.4917 21.084 17.1724 21.5702 16.7079 22.0819C16.2325 22.6045 15.5176 23.1597 14.5922 23.7258C13.6886 24.2629 12.9011 24.9307 12.2551 25.7073C11.6128 26.4802 11.1084 27.3221 10.76 28.2112C10.408 29.1076 10.2266 30.0185 10.2266 30.9221C10.2266 31.2124 10.3391 31.4737 10.5495 31.6878C10.76 31.8983 11.0249 32.0071 11.3116 32.0071H19.1248C19.4332 32.0071 19.709 31.891 19.9122 31.6733C20.1082 31.4628 20.2098 31.2051 20.2098 30.9221C20.2098 30.6172 20.101 30.3523 19.8977 30.1455C19.6945 29.9422 19.426 29.837 19.1248 29.837L19.1393 29.8406Z" fill="#303030"/>
<path d="M30.4147 26.3423C30.2151 26.1282 29.9465 26.0193 29.6381 26.0193H27.8816V15.9671C27.8816 15.6804 27.7728 15.4191 27.5696 15.2123C27.3663 15.009 27.0978 14.9038 26.7966 14.9038H26.7349C26.7349 14.9038 26.7059 14.9111 26.6914 14.9111C26.6587 14.9111 26.6297 14.9183 26.5934 14.9256L26.4772 14.9546C26.4373 14.9655 26.3974 14.98 26.3647 14.9945C26.3176 15.0127 26.274 15.0381 26.2486 15.0526L26.2087 15.0744C26.1107 15.1361 26.0273 15.2086 25.9692 15.2848C25.922 15.3393 25.8821 15.3973 25.8458 15.4554L18.8673 26.5165C18.6169 26.8612 18.6024 27.2677 18.8238 27.6342C19.0234 27.9898 19.35 28.1858 19.7492 28.1858H25.7079V31.2377C25.7079 31.5353 25.824 31.7966 26.0454 32.0034C26.2559 32.1958 26.5135 32.301 26.7966 32.301C27.0978 32.301 27.3663 32.1958 27.5732 31.9889C27.7764 31.7857 27.8853 31.5244 27.8853 31.2377V28.1858H29.6417C29.9574 28.1858 30.2332 28.066 30.4328 27.8374C30.6143 27.6306 30.7086 27.3765 30.7086 27.1007C30.7086 26.8032 30.6106 26.5419 30.4219 26.3386L30.4147 26.3423ZM25.7043 19.694V26.0193H21.7233L21.9048 25.7254C22.1588 25.3153 22.5289 24.731 23.008 23.9762C23.4906 23.2177 24.1112 22.2307 24.8732 21.015C25.1309 20.6049 25.4067 20.1658 25.7043 19.694Z" fill="#303030"/>
<path d="M7.32031 16.1671C7.32031 15.474 7.77393 14.9224 8.61585 14.9224C9.16745 14.9224 9.78437 15.2925 9.78437 16.2796C9.78437 17.1687 9.39607 18.3154 9.02229 19.1065C8.84447 19.4767 8.73198 19.542 8.34005 19.542H8.16223C7.91909 19.542 7.80659 19.5094 7.80659 19.3969C7.80659 19.3315 7.83925 19.2662 7.91909 19.1211C8.22755 18.5731 8.53601 17.8292 8.53601 17.5534C8.53601 17.361 8.40537 17.263 8.18038 17.2159C7.66143 17.0707 7.32031 16.7006 7.32031 16.1671Z" fill="#303030"/>
<path d="M16.9109 37.9407H3.3967C3.10639 37.9407 2.87413 37.7048 2.87413 37.4181V24.6624H0V39.3778C0 40.2451 0.700388 40.9455 1.56771 40.9455H16.9109C17.1287 40.9455 17.3029 40.7713 17.3029 40.5535V38.3326C17.3029 38.1149 17.1287 37.9407 16.9109 37.9407Z" fill="#5073B8"/>
<path d="M35.9735 24.6624V37.4181C35.9735 37.7084 35.7412 37.9407 35.4509 37.9407H21.1165C20.8988 37.9407 20.7246 38.1149 20.7246 38.3326V40.5535C20.7246 40.7713 20.8988 40.9455 21.1165 40.9455H37.2799C38.1472 40.9455 38.8476 40.2451 38.8476 39.3778V24.6624H35.9735Z" fill="#AF6DD7"/>
<path d="M19.0085 0.152417C18.5476 0.148788 18.0867 0.279431 17.6948 0.551602L1.31368 10.9522L1.2411 11.003C0.464506 11.5655 0 12.4691 0 13.4162V24.6878H2.87413V13.8445C2.87413 13.5759 3.01203 13.3292 3.23703 13.184L18.5839 3.39307C18.7145 3.30961 18.8633 3.26969 19.0121 3.26969V0.152417H19.0085Z" fill="#35AD72"/>
<path d="M37.5455 10.9848L20.2354 0.522497C19.8652 0.279357 19.437 0.159602 19.0088 0.152344V3.26962C19.1467 3.26962 19.2882 3.30591 19.4116 3.38211L35.5967 13.2093C35.829 13.3509 35.9742 13.6049 35.9742 13.8807V24.6877H38.8483V13.4379C38.8483 12.4618 38.362 11.5436 37.5491 10.9811L37.5455 10.9848Z" fill="#EF8786"/>
</svg>
