<svg width="115" height="30" viewBox="0 0 115 30" fill="none" xmlns="http://www.w3.org/2000/svg">
<path d="M38.9284 29.8982H34.3373C34.1512 29.8982 33.9811 29.8264 33.8428 29.6908C33.7046 29.5552 33.6328 29.3824 33.6328 29.1963C33.6328 28.6567 33.7391 28.1144 33.9518 27.58C34.1592 27.051 34.4596 26.5512 34.8397 26.0913C35.2252 25.6287 35.6931 25.2326 36.2301 24.911C36.7671 24.5813 37.1845 24.2597 37.4583 23.9566C37.7241 23.6642 37.9076 23.385 38.0006 23.1272C38.0963 22.864 38.1442 22.6114 38.1442 22.3748C38.1442 21.9894 38.0219 21.689 37.7693 21.4603C37.5061 21.2237 37.1632 21.1068 36.7246 21.1068C36.3152 21.1068 35.9802 21.1972 35.6931 21.3832C35.4113 21.5667 35.2066 21.8299 35.0657 22.1914C34.9913 22.3748 34.861 22.5104 34.6829 22.5849C34.5048 22.6593 34.316 22.6593 34.1432 22.5822C33.9757 22.5157 33.8402 22.3855 33.7657 22.2074C33.6913 22.0346 33.6913 21.8458 33.7657 21.6677C34.0156 21.0509 34.4038 20.5671 34.9195 20.2215C35.4352 19.8786 36.0413 19.7031 36.7246 19.7031C37.2589 19.7031 37.7454 19.8148 38.1707 20.0354C38.6014 20.2614 38.9443 20.5804 39.1863 20.9871C39.4282 21.3939 39.5505 21.8591 39.5505 22.3748C39.5505 23.074 39.3404 23.7413 38.9231 24.366C38.519 24.9721 37.857 25.557 36.9558 26.1046C36.4162 26.4342 35.9749 26.8623 35.6426 27.3806C35.4033 27.7555 35.2358 28.1277 35.1401 28.4945H38.9257C39.1225 28.4945 39.2952 28.5636 39.4255 28.6966C39.5584 28.8268 39.6276 29.0023 39.6276 29.1963C39.6276 29.3798 39.5611 29.5473 39.4335 29.6828C39.2979 29.8237 39.1224 29.8982 38.9231 29.8982H38.9284Z" fill="white"/>
<path d="M43.2899 29.9756C42.628 29.9756 42.0857 29.8134 41.6736 29.4918C41.2748 29.1807 40.9718 28.7607 40.7724 28.245C40.5863 27.7611 40.4614 27.2108 40.4002 26.6127C40.3417 26.0385 40.3125 25.4377 40.3125 24.8315C40.3125 24.2254 40.3417 23.6246 40.4002 23.0504C40.4587 22.4523 40.5863 21.902 40.7724 21.4181C40.9718 20.9024 41.2748 20.4824 41.6736 20.1713C42.0857 19.8497 42.628 19.6875 43.2899 19.6875C43.9519 19.6875 44.4623 19.8417 44.869 20.1501C45.2651 20.4478 45.5682 20.8599 45.7676 21.3729C45.9537 21.8515 46.0786 22.4017 46.1398 23.0052C46.1982 23.5901 46.2275 24.2042 46.2275 24.8315C46.2275 25.4589 46.1982 26.0863 46.1398 26.6712C46.0786 27.2773 45.9537 27.8249 45.7676 28.2981C45.5655 28.8085 45.2651 29.2153 44.869 29.513C44.4623 29.8187 43.9306 29.9756 43.2899 29.9756ZM43.2899 21.0805C43.0826 21.0805 42.8832 21.1177 42.6944 21.1922C42.5349 21.256 42.3808 21.3942 42.2399 21.6042C42.083 21.8355 41.9581 22.2077 41.8624 22.7075C41.7613 23.2338 41.7108 23.9463 41.7108 24.8289C41.7108 25.7115 41.7613 26.4372 41.8624 26.9556C41.9581 27.4501 42.0857 27.8196 42.2425 28.0535C42.3834 28.2636 42.5376 28.4045 42.6971 28.4656C43.1065 28.6278 43.5744 28.6118 43.92 28.4497C44.0821 28.3752 44.2284 28.221 44.356 27.9977C44.5022 27.7425 44.6165 27.3624 44.7016 26.8706C44.7893 26.3548 44.8345 25.6663 44.8345 24.8262C44.8345 23.9862 44.7893 23.2976 44.7016 22.7846C44.6165 22.2928 44.4995 21.9126 44.356 21.6574C44.2284 21.4341 44.0821 21.2799 43.92 21.2055C43.7365 21.1177 43.5292 21.0779 43.2926 21.0779L43.2899 21.0805Z" fill="white"/>
<path d="M52.2565 29.8799H47.6654C47.4793 29.8799 47.3092 29.8081 47.171 29.6725C47.0327 29.5343 46.9609 29.3641 46.9609 29.1781C46.9609 28.6384 47.0673 28.0961 47.2799 27.5617C47.4873 27.0354 47.7877 26.5329 48.1679 26.073C48.5533 25.6105 49.0212 25.2117 49.5582 24.8927C50.0952 24.563 50.5099 24.2414 50.7864 23.9383C51.0522 23.6459 51.2357 23.3668 51.3287 23.1089C51.4244 22.8457 51.4723 22.5932 51.4723 22.3566C51.4723 21.9711 51.35 21.6707 51.0974 21.4421C50.8343 21.2055 50.4913 21.0885 50.0527 21.0885C49.6433 21.0885 49.3083 21.1789 49.0212 21.365C48.7394 21.5484 48.5347 21.8116 48.3938 22.1731C48.3194 22.3566 48.1891 22.4921 48.0137 22.5666C47.8329 22.641 47.6468 22.641 47.474 22.5666C47.3065 22.5001 47.171 22.3698 47.0965 22.1944C47.0221 22.0189 47.0221 21.8328 47.0939 21.6521C47.3438 21.0353 47.7319 20.5515 48.2476 20.2059C48.7633 19.863 49.3695 19.6875 50.0527 19.6875C50.587 19.6875 51.0735 19.7992 51.4989 20.0198C51.9295 20.2458 52.2725 20.5648 52.5144 20.9715C52.7563 21.3783 52.8786 21.8435 52.8786 22.3592C52.8786 23.0584 52.6686 23.7256 52.2512 24.3504C51.8471 24.9565 51.1852 25.5413 50.284 26.089C49.7443 26.4186 49.303 26.8493 48.9707 27.365C48.7314 27.7399 48.564 28.112 48.4656 28.4789H52.2512C52.4479 28.4789 52.6207 28.548 52.751 28.6809C52.8839 28.8112 52.953 28.9867 52.953 29.1807C52.953 29.3615 52.8866 29.5316 52.7616 29.6646C52.626 29.8081 52.4506 29.8825 52.2512 29.8825L52.2565 29.8799Z" fill="white"/>
<path d="M57.3825 29.97C57.2017 29.97 57.0342 29.9035 56.9013 29.7786C56.7604 29.6456 56.686 29.4755 56.686 29.2841V27.5668H53.2752C53.0174 27.5668 52.7994 27.4338 52.6744 27.2026C52.5335 26.9766 52.5468 26.7054 52.717 26.4768L56.795 20.0089C56.888 19.8573 57.0342 19.7537 57.215 19.7085C57.4064 19.6606 57.5925 19.6952 57.76 19.8068C57.9727 19.9663 58.0817 20.1684 58.0817 20.389C58.0817 20.397 58.0817 20.405 58.0817 20.413C58.0817 20.4209 58.0817 20.4316 58.0817 20.4395V26.1711H59.044C59.2434 26.1711 59.4162 26.2429 59.5438 26.3811C59.6661 26.5114 59.7299 26.6788 59.7299 26.8703C59.7299 27.0457 59.6687 27.2079 59.5544 27.3408C59.4268 27.4897 59.2487 27.5668 59.044 27.5668H58.0817V29.2841C58.0817 29.4702 58.0125 29.6377 57.8823 29.7679C57.7494 29.8982 57.5792 29.9673 57.3852 29.9673L57.3825 29.97ZM54.5433 26.1737H56.686V22.771C56.5584 22.9757 56.4361 23.1697 56.3218 23.3532C55.8778 24.063 55.5136 24.6398 55.2345 25.0811C54.9554 25.5224 54.74 25.8601 54.5912 26.0993L54.546 26.1711L54.5433 26.1737Z" fill="white"/>
<path d="M33.4366 7.71208C33.301 7.55257 33.3037 7.32129 33.4366 7.16178C33.4898 7.09532 33.5483 7.03684 33.5882 6.98899C35.3294 5.14404 36.7942 2.73551 37.6183 0.345595C37.6901 0.162164 37.7273 0 37.948 0L39.434 0.566244C39.5537 0.611437 39.6068 0.752333 39.5457 0.863987C39.4447 1.05273 39.325 1.29465 39.2479 1.45947C38.8252 2.46436 38.1979 3.66064 37.6316 4.6097L37.6369 6.16753V13.3426C37.6369 14.1455 37.6741 14.9483 37.6741 15.7325C37.6741 16.2802 37.4721 16.3706 36.7224 16.3706C35.9728 16.3706 35.7867 16.2429 35.7867 15.7325C35.7867 14.9297 35.8239 14.1455 35.8239 13.3426V7.82905C35.8239 7.73866 35.7867 7.62701 35.6777 7.62701C35.6032 7.62701 35.5687 7.64562 35.5315 7.69878C35.3932 7.87158 35.045 8.3182 34.7366 8.58404C34.5585 8.73823 34.29 8.71164 34.1385 8.53353L33.4393 7.70942L33.4366 7.71208ZM45.0406 8.21186C45.0406 8.55745 45.1868 8.70367 45.5537 8.70367H46.2874C46.9467 8.70367 47.5901 8.66645 48.2493 8.66645C48.7438 8.66645 48.7066 8.94027 48.7066 9.54373C48.7066 10.1472 48.7252 10.421 48.2307 10.421C47.5901 10.421 46.9494 10.3652 46.2874 10.3652H45.5537C45.1868 10.3652 45.0406 10.53 45.0406 10.8756V14.0896C45.0406 14.3714 45.2693 14.6 45.5511 14.6H47.1833C47.8798 14.6 48.5577 14.5628 49.2356 14.5628C49.7115 14.5628 49.6929 14.818 49.6929 15.4561C49.6929 16.0941 49.7115 16.3493 49.2356 16.3493C48.5577 16.3493 47.8798 16.3121 47.1833 16.3121H41.045C40.3671 16.3121 39.6706 16.3493 38.9927 16.3493C38.5169 16.3493 38.5355 16.0941 38.5355 15.4561C38.5355 14.7622 38.5355 14.5628 39.0113 14.5628C39.6892 14.5628 40.3671 14.6 41.045 14.6H42.6401C42.9245 14.6 43.1532 14.3714 43.1532 14.087V10.8756C43.1532 10.53 43.0069 10.3652 42.6401 10.3652H42.0526C41.4119 10.3652 40.7526 10.421 40.1119 10.421C39.6175 10.421 39.6361 10.1844 39.6361 9.54373C39.6361 8.94027 39.6175 8.66645 40.0933 8.66645C40.7526 8.66645 41.3933 8.70367 42.0526 8.70367H42.6401C43.0069 8.70367 43.1532 8.55745 43.1532 8.21186V5.82194C43.1532 5.47635 43.0069 5.33013 42.6401 5.33013H41.3747C40.7872 5.33013 40.1837 5.36735 39.5776 5.36735C39.1017 5.36735 39.1203 5.13075 39.1203 4.47412C39.1203 3.81749 39.1017 3.59684 39.5962 3.59684C40.1837 3.59684 40.7872 3.63406 41.3747 3.63406H43.6662C43.7938 3.61545 43.9241 3.57823 43.9241 3.43202C43.9241 3.36024 43.9055 3.32303 43.8683 3.2672C43.2994 2.64779 42.7145 2.06293 42.0898 1.5153C41.9808 1.4063 41.8346 1.2787 41.8346 1.13249C41.8346 0.85867 42.6773 0.111654 43.0442 0.111654C43.3366 0.111654 44.3441 1.1697 44.5834 1.4063C44.804 1.62429 45.6467 2.46436 45.6467 2.73817C45.6467 2.94021 45.2427 3.2672 45.0965 3.3948C45.0592 3.43202 45.0406 3.45063 45.0406 3.5038C45.0406 3.59418 45.1124 3.6314 45.1868 3.6314H47.0185C47.622 3.6314 48.2281 3.59418 48.8156 3.59418C49.3287 3.59418 49.2914 3.84939 49.2914 4.48741C49.2914 5.12543 49.3101 5.36469 48.8156 5.36469C48.2281 5.36469 47.6246 5.32747 47.0185 5.32747H45.5537C45.1868 5.32747 45.0406 5.47369 45.0406 5.81928V8.2092V8.21186Z" fill="white"/>
<path d="M62.471 6.30548C61.6655 6.61651 60.5277 6.96211 59.0815 7.34492C58.7332 7.47252 58.6242 7.61874 58.6242 7.98294V9.1686C58.6242 9.42381 58.7332 9.60723 59.0283 9.60723H59.1028L64.1963 8.95061C64.4887 8.91339 66.1928 8.65818 66.2672 8.65818C66.7617 8.65818 66.8361 9.69762 66.8361 10.0645C66.8361 10.4313 66.6155 10.4473 65.7913 10.5217C65.4617 10.559 65.039 10.5935 64.4914 10.6679L59.1054 11.3432C58.7572 11.3804 58.6296 11.5612 58.6296 11.9094V13.7996C58.6296 14.5306 58.7572 14.6582 59.5281 14.6582H63.0638C63.9065 14.6582 64.09 14.4934 64.3292 12.7787C64.401 12.3215 64.4568 12.2311 64.8051 12.2311C65.1719 12.2311 66.1609 12.3215 66.1609 12.7973C66.1609 13.3264 65.6478 15.2245 65.3181 15.6631C64.8423 16.2825 64.2548 16.357 63.5397 16.357H58.9964C57.4014 16.357 56.7607 16.0831 56.7607 14.4775V12.1487C56.7607 11.8935 56.6517 11.71 56.3566 11.71H56.2848L53.0043 12.1301C52.7837 12.1673 51.0265 12.4225 50.9893 12.4225C50.439 12.4225 50.3672 11.4362 50.3672 11.0348C50.3672 10.6706 50.5692 10.652 51.4119 10.5776C51.723 10.5403 52.1457 10.5058 52.6933 10.4313L56.2848 9.9741C56.6331 9.93688 56.7607 9.75611 56.7607 9.40785V8.40297C56.7607 8.16637 56.6676 7.96433 56.3938 7.96433C56.3566 7.96433 56.2476 8.00155 56.2104 8.00155C55.4421 8.14776 53.5546 8.47741 52.8581 8.47741C52.3078 8.47741 52.1244 7.36353 52.1244 7.16415C52.1244 6.87172 52.3796 6.78133 52.9857 6.72551C55.4049 6.50752 59.6371 5.66746 61.7638 4.60941C61.8569 4.57219 62.0403 4.46319 62.1307 4.46319C62.2955 4.46319 62.9176 5.24743 63.101 5.46807C63.1701 5.55314 63.2526 5.64087 63.3217 5.72594C63.4147 5.84025 63.3642 6.01305 63.2233 6.0609L62.479 6.30814L62.471 6.30548ZM57.6087 0.27618C57.6087 0.0395809 57.7549 0.00236304 57.9384 0.00236304C58.2627 0.00236304 58.8715 -0.0029538 59.3128 0.00236304C59.4297 0.00236304 59.5254 0.100725 59.5228 0.220353L59.4989 1.35816V1.54159C59.5361 1.88718 59.6637 2.0334 60.0119 2.0334H63.1462C63.8241 2.0334 64.502 2.01479 65.1799 2.01479C65.693 2.01479 66.2247 2.14239 66.2247 2.74585C66.2247 2.89207 66.1874 3.33071 66.1874 3.75074V4.79018C66.1874 5.04539 66.2247 5.35642 66.2247 5.57441C66.2247 6.01305 65.9136 5.97583 65.2357 5.97583C64.5578 5.97583 64.2468 5.99444 64.2468 5.57441C64.2468 5.3192 64.3026 5.04539 64.3026 4.79018V4.26115C64.3026 3.89695 64.1378 3.75074 63.7895 3.75074H53.326C52.9778 3.75074 52.8129 3.89695 52.8129 4.26115V4.73701C52.8129 4.97361 52.8688 5.34047 52.8688 5.53985C52.8688 5.95988 52.5205 5.94127 51.8612 5.94127C51.1647 5.94127 50.8723 5.94127 50.8723 5.52124C50.8723 5.28464 50.9281 4.99222 50.9281 4.73701V3.75074C50.9281 3.3121 50.8909 2.94789 50.8909 2.74585C50.8909 2.10783 51.4226 1.99618 52.3557 1.99618C52.7943 1.99618 53.3446 2.0334 53.9693 2.0334H57.1036C57.3881 2.0334 57.6167 1.80211 57.6167 1.51766L57.6114 0.27618H57.6087Z" fill="white"/>
<path d="M81.1361 4.38878C81.2185 4.48182 81.2025 4.62538 81.1042 4.69981L80.4582 5.18099C79.23 6.02105 78.5335 6.47564 77.1963 7.18809C77.1591 7.22531 77.1245 7.24392 77.1245 7.29709C77.1245 7.38748 77.1963 7.40608 77.2707 7.42469H80.0381C80.5326 7.42469 81.0457 7.38748 81.5402 7.38748C82.0346 7.38748 82.4015 7.51508 82.4015 8.09993C82.4015 8.50135 82.3643 8.90277 82.3643 9.3042V14.6902C82.3643 15.1474 82.4015 15.5063 82.4015 15.9635C82.4015 16.3464 82.218 16.3464 81.4657 16.3464C80.7134 16.3464 80.5113 16.365 80.5113 15.9821V15.7642C80.5113 15.6366 80.4077 15.5329 80.2801 15.5329H74.3917C74.171 15.5329 74.0859 15.5595 74.0859 15.7987C74.1045 16.3277 74.0487 16.365 73.1342 16.365C72.3819 16.365 72.1985 16.3464 72.1985 15.9635C72.1985 15.5063 72.2117 15.1341 72.2117 14.6769V9.85715C72.1931 9.65511 72.1187 9.49294 71.9007 9.49294C71.8449 9.49294 71.7917 9.51155 71.7359 9.51155C71.3132 9.65777 69.6278 10.224 69.2795 10.224C68.8037 10.224 68.3438 9.18457 68.3438 8.91075C68.3438 8.61832 68.6734 8.56516 68.894 8.50933C71.9353 7.79687 77.3957 5.93598 79.5224 3.63644C79.5809 3.57796 79.6925 3.44504 79.8042 3.35465C79.8893 3.28553 80.0116 3.29085 80.0886 3.36794L81.1387 4.39675L81.1361 4.38878ZM73.4373 2.4056C72.5573 3.57264 71.5312 4.63335 70.3588 5.52658C70.1754 5.67279 69.9548 5.83762 69.7182 5.83762C69.3141 5.83762 68.4368 5.23415 68.4368 4.86995C68.4368 4.70513 68.6574 4.57752 68.785 4.48714C70.0505 3.64708 71.3318 2.4056 72.1559 1.12955C72.2118 1.03917 72.2835 0.927513 72.4111 0.927513C72.576 0.927513 73.3044 1.48844 73.6686 1.75694C73.7643 1.82872 73.7829 1.9643 73.7084 2.05734L73.4373 2.4056ZM77.3957 1.76757V2.82563C77.3957 3.20844 77.4329 3.59125 77.4329 3.97672C77.4329 4.65196 77.2867 5.18099 76.6274 5.49202C76.2233 5.67545 75.2902 5.82166 74.8303 5.82166C74.078 5.82166 73.7138 5.84027 73.5303 5.51063C73.3841 5.25542 73.3097 4.87261 73.3097 4.56157C73.3097 4.26915 73.3655 4.08572 73.6952 4.08572C73.969 4.08572 74.2454 4.10433 74.5193 4.10433C75.564 4.10433 75.5454 3.90229 75.5454 2.95323V1.76757C75.5454 1.36615 75.5906 0.874345 75.5348 0.472923C75.5162 0.435705 75.5241 0.353294 75.5241 0.300126C75.5241 0.0821354 75.7076 0.0263086 75.891 0.0263086C76.0558 0.0263086 76.7736 0.0183333 77.1777 0.028967C77.292 0.0316254 77.3824 0.12467 77.3824 0.238982L77.3957 1.76492V1.76757ZM80.1073 9.76145C80.3492 9.76145 80.5459 9.56472 80.5459 9.32281V9.23242C80.5459 8.9905 80.3492 8.79378 80.1073 8.79378H74.4608C74.2189 8.79378 74.0221 8.9905 74.0221 9.23242V9.34141C74.0221 9.5727 74.2109 9.76145 74.4422 9.76145H80.1073ZM74.0248 11.4947C74.0248 11.7367 74.2215 11.9334 74.4634 11.9334H80.1099C80.3518 11.9334 80.5486 11.7367 80.5486 11.4947V11.3857C80.5486 11.1438 80.3518 10.9471 80.1099 10.9471H74.4634C74.2215 10.9471 74.0248 11.1438 74.0248 11.3857V11.4947ZM74.0248 13.7225C74.0248 13.9538 74.2135 14.1425 74.4448 14.1425H80.1285C80.3598 14.1425 80.5486 13.9538 80.5486 13.7225V13.5577C80.5486 13.3158 80.3518 13.119 80.1099 13.119H74.4634C74.2215 13.119 74.0248 13.3158 74.0248 13.5577V13.7198V13.7225ZM83.0953 5.6914C82.9119 5.6914 82.7843 5.54519 82.6912 5.41759C81.7369 4.26649 80.6576 3.22705 79.4852 2.27799C79.3576 2.169 79.1742 2.02278 79.1742 1.83935C79.1742 1.52832 79.9079 0.980682 80.2003 0.980682C80.4023 0.980682 80.5299 1.08968 80.6948 1.21728C81.2823 1.69314 81.8485 2.18495 82.3802 2.71397C82.7098 3.02501 84.1746 4.44726 84.1746 4.79552C84.1746 5.14377 83.3878 5.68874 83.0927 5.68874L83.0953 5.6914Z" fill="white"/>
<path d="M95.5655 3.76644C96.371 3.76644 97.1606 3.72922 97.9661 3.72922C98.3329 3.72922 98.4419 3.83822 98.4419 4.51345V4.95209C98.4419 5.51834 98.3861 5.71772 97.873 5.71772C97.1207 5.71772 96.371 5.6805 95.6001 5.6805H94.1353C93.8243 5.6805 93.585 5.9171 93.585 6.22814V11.3403C93.585 11.6327 93.8243 11.8693 94.1353 11.8693H96.9931C97.7454 11.8693 98.753 11.8321 99.3006 11.8321C99.7579 11.8321 99.7765 11.9969 99.7765 12.8901C99.7765 13.475 99.7765 13.8392 99.2634 13.8392C98.7131 13.8392 97.78 13.7834 96.9905 13.7834H88.122C87.3351 13.7834 86.3993 13.8392 85.849 13.8392C85.3359 13.8392 85.3359 13.4936 85.3359 12.8715C85.3359 11.9942 85.3545 11.8321 85.8118 11.8321C86.3621 11.8321 87.351 11.8693 88.122 11.8693H90.9798C91.2908 11.8693 91.5301 11.6327 91.5301 11.3403V6.22814C91.5301 5.9171 91.2908 5.6805 90.9798 5.6805H89.515C88.744 5.6805 87.9944 5.71772 87.242 5.71772C86.7289 5.71772 86.6731 5.51568 86.6731 4.96804V4.52941C86.6731 3.83556 86.7821 3.72656 87.149 3.72656C87.9359 3.72656 88.744 3.76378 89.5309 3.76378H95.5602L95.5655 3.76644Z" fill="white"/>
<path d="M110.243 3.83648C110.565 3.83648 110.921 3.85243 111.208 3.78597C111.243 3.78597 111.293 3.77002 111.328 3.77002C111.7 3.77002 112.444 4.69781 112.444 4.89985C112.444 5.05138 112.242 5.20291 112.139 5.30393C112.088 5.33849 112.019 5.40495 111.987 5.45546C111.142 6.33274 110.108 7.27648 109.159 8.01818C108.802 8.28933 108.786 8.47276 108.786 8.9114V12.3168C108.786 12.9575 108.821 13.5982 108.821 14.2389C108.821 14.8131 108.837 14.8636 107.736 14.8636C107.058 14.8636 106.957 14.7466 106.957 14.425C106.957 13.7338 107.008 13.0426 107.008 12.3514V10.0572C107.008 9.90565 106.888 9.77007 106.737 9.77007C106.601 9.77007 106.482 9.85514 106.381 9.90565C105.753 10.3097 102.824 11.9128 102.249 11.9128C101.877 11.9128 101.133 10.985 101.133 10.6474C101.133 10.4294 101.369 10.3443 101.54 10.2938C103.791 9.55208 106.604 8.05008 108.364 6.48161C108.534 6.33008 109.058 5.926 109.058 5.75586C109.058 5.51926 108.736 5.56977 108.515 5.56977H105.349C104.621 5.56977 103.892 5.60433 103.164 5.60433C102.707 5.60433 102.741 5.31722 102.741 4.64198C102.741 4.03586 102.707 3.79926 103.129 3.79926C103.35 3.79926 103.571 3.81521 103.791 3.81521C104.299 3.83116 104.825 3.83116 105.349 3.83116H110.243V3.83648ZM108.566 1.34022C108.786 1.54226 109.666 2.33447 109.666 2.58702C109.666 2.87413 108.853 3.65039 108.566 3.65039C108.396 3.65039 108.279 3.53342 108.159 3.41379C107.532 2.75716 106.872 2.13243 106.16 1.57682C106.024 1.4758 105.822 1.34022 105.822 1.17274C105.822 0.920193 106.668 0.109375 106.957 0.109375C107.229 0.109375 108.313 1.10362 108.566 1.34022ZM113.104 9.46701C113.324 9.66905 114.273 10.5463 114.273 10.7989C114.273 11.086 113.409 11.8942 113.122 11.8942C112.92 11.8942 112.766 11.6762 112.649 11.5406C111.955 10.7138 111.312 10.1236 110.464 9.48297C110.395 9.4165 110.278 9.31549 110.278 9.21181C110.278 8.94331 111.142 8.14844 111.413 8.14844C111.684 8.14844 112.851 9.22776 113.106 9.46436L113.104 9.46701Z" fill="white"/>
<path d="M65.7486 29.4234C65.7832 29.6786 65.8257 29.9976 66.158 29.9976C66.3467 29.9976 66.7109 29.9179 66.9794 29.8514L67.0167 29.8381C67.1443 29.7929 67.341 29.7238 67.341 29.4766C67.341 29.3516 67.1868 28.6897 67.022 27.9267C66.9608 27.6503 66.9103 27.411 66.8917 27.3047L66.7482 26.5125C66.7375 26.4566 66.7482 26.4008 66.7774 26.3583C66.796 26.3317 66.8332 26.2971 66.8944 26.2891L68.6463 26.0366C68.9812 25.9861 69.2949 25.9489 69.6033 25.917C70.3237 25.8346 70.5656 25.808 70.5656 25.4225C70.5656 25.3427 70.5497 25.2178 70.5391 25.1115L70.5284 25.0264C70.5231 25.0025 70.5205 24.9785 70.5178 24.9599C70.5151 24.9307 70.5098 24.9015 70.5045 24.8722C70.4699 24.6143 70.4274 24.3272 70.0925 24.3272C70.0579 24.3272 69.9356 24.3458 69.3215 24.4495C68.9573 24.5107 68.5453 24.5798 68.4416 24.5904L66.6445 24.843C66.5142 24.8589 66.4105 24.7818 66.3866 24.6569L66.1341 23.3383C66.1234 23.2878 66.1341 23.232 66.166 23.1894C66.1846 23.1602 66.2218 23.1256 66.2829 23.1177L67.2559 22.9741C67.5723 22.9236 67.6892 22.9236 67.9019 22.9023L68.0853 22.8837C68.7473 22.804 68.9945 22.7747 68.9945 22.4185C68.9945 22.2962 68.9493 22.041 68.9201 21.8709L68.8962 21.7379C68.8669 21.5731 68.8164 21.2993 68.5187 21.2993C68.423 21.2993 67.0486 21.5253 67.0379 21.5279L66.0437 21.6715C65.8868 21.6874 65.8124 21.5705 65.7831 21.4561L65.738 21.2647C65.73 21.2116 65.7114 21.1052 65.6928 20.9856C65.6555 20.7703 65.5944 20.4087 65.5944 20.321L65.5545 20.0046C65.5279 19.8079 65.3445 19.6564 65.1611 19.6644L64.3715 19.6883C64.2572 19.6909 64.1509 19.7441 64.0791 19.8345C64.0073 19.9249 63.9807 20.0392 64.002 20.1509C64.0392 20.3343 64.0738 20.5523 64.1083 20.757C64.1456 20.9829 64.1801 21.1956 64.2094 21.3232L64.2732 21.6289C64.2811 21.6768 64.2891 21.7193 64.2891 21.7645C64.2891 21.8602 64.2253 21.9373 64.1323 21.9506L63.1247 22.0942C62.6941 22.1526 62.5346 22.1899 62.282 22.2138C61.644 22.2882 61.3781 22.3175 61.3781 22.6604C61.3781 22.7774 61.418 23.0299 61.4499 23.232L61.4765 23.3994C61.519 23.644 61.6599 23.7902 61.8513 23.7902C61.9497 23.7902 63.3028 23.5536 63.3135 23.551L64.3715 23.3941C64.5098 23.3702 64.6214 23.4473 64.648 23.5909L64.8899 24.8961C64.9006 24.952 64.8899 25.0051 64.8607 25.045C64.8314 25.0849 64.7889 25.1088 64.7304 25.1168L62.8536 25.4039C62.5106 25.4517 62.189 25.4916 61.8753 25.5235C61.2532 25.582 60.9688 25.6086 60.9688 25.9595C60.9688 26.1031 61.0538 26.6427 61.091 26.7677C61.1176 26.8767 61.1761 27.1026 61.4659 27.1026C61.5403 27.1026 61.9338 27.0388 62.6808 26.9139C62.8536 26.8846 62.9945 26.8607 63.0556 26.8501L64.9776 26.563C65.1026 26.547 65.2222 26.6321 65.2461 26.7491L65.403 27.5865C65.4881 28.0517 65.6343 28.7774 65.7193 29.2666L65.7433 29.4208L65.7486 29.4234Z" fill="white"/>
<path d="M78.2546 23.7312C78.2404 23.7312 78.0339 23.7737 77.6352 23.8588C77.4384 23.9013 77.2603 23.9386 77.2098 23.9492L75.2638 24.3426C75.2107 24.3533 75.1548 24.3426 75.1123 24.3161C75.0671 24.2868 75.0379 24.239 75.0272 24.1778L74.9182 23.6355C74.8651 23.4069 74.7641 22.931 74.7614 22.8114L74.7029 22.5402C74.6816 22.4365 74.6178 22.3488 74.5275 22.293C74.4371 22.2372 74.3307 22.2212 74.2297 22.2451L73.605 22.3993C73.504 22.4233 73.4189 22.4871 73.3657 22.5774C73.3126 22.6652 73.2966 22.7715 73.3232 22.8725C73.3365 22.9284 73.3524 22.9895 73.3657 23.0586C73.4508 23.4042 73.5438 23.8189 73.5571 23.8801L73.6768 24.433C73.6901 24.4968 73.6821 24.5527 73.6528 24.5978C73.6236 24.643 73.5731 24.6749 73.5093 24.6856L72.6692 24.8531C72.4326 24.9009 72.2412 24.9355 72.0737 24.9594C71.3374 25.0843 71.1406 25.1162 71.1406 25.4166C71.1406 25.5549 71.2416 26.0387 71.2842 26.161C71.3241 26.2487 71.3958 26.4162 71.6271 26.4162C71.7016 26.4162 72.8527 26.1769 72.9138 26.1637L73.8044 25.9802C73.8044 25.9802 73.8283 25.9749 73.8363 25.9749C73.9399 25.9749 74.0144 26.036 74.0383 26.1371L74.4902 28.3701C74.5275 28.5509 74.5567 28.7184 74.5806 28.8646C74.5939 28.9497 74.6072 29.0268 74.6205 29.0906C74.6949 29.5904 74.7534 29.9865 75.1043 29.9865C75.2479 29.9865 75.6174 29.9067 75.7424 29.8722C75.9284 29.8137 76.1198 29.7552 76.1198 29.5C76.1198 29.3405 75.9976 28.8035 75.8726 28.2691L75.3808 25.8792V25.7941C75.3808 25.7037 75.4499 25.6213 75.5456 25.6054L76.9413 25.3263C76.9759 25.3156 77.0078 25.3076 77.045 25.2944C77.0051 25.4193 76.4043 26.1982 76.2581 26.3577C76.2474 26.3737 76.2368 26.3896 76.2235 26.4056C76.1677 26.4773 76.0933 26.5757 76.0933 26.69C76.0933 27.0303 76.8456 27.2935 77.0343 27.2935C77.2071 27.2935 77.3108 27.2004 77.3746 27.126C77.5235 26.9771 78.0339 26.1956 78.1349 26.0414C78.3769 25.6745 78.6772 25.2173 78.975 24.9089C79.0202 24.8717 79.1531 24.76 79.1531 24.5846C79.1531 24.2868 78.5204 23.7179 78.2599 23.7179L78.2546 23.7312Z" fill="white"/>
<path d="M80.276 21.7188L80.3451 21.6125L80.2786 21.7188C80.7332 21.9953 81.5361 22.5323 81.8551 22.8167C82.0332 22.9789 82.2751 23.173 82.4213 23.173C82.7217 23.173 83.3385 22.4685 83.3385 22.1255C83.3385 21.9979 83.2428 21.8172 82.5543 21.3413C81.6238 20.6581 81.0682 20.3125 80.906 20.3125C80.5285 20.3125 80.0234 21.1605 80.0234 21.3838C80.0234 21.5593 80.167 21.6497 80.2733 21.7161L80.276 21.7188Z" fill="white"/>
<path d="M88.0065 22.2344C87.9001 22.2344 87.8018 22.2929 87.7034 22.4125C86.0632 24.4967 82.7853 26.7936 80.2386 27.6443C80.1216 27.6841 80.0312 27.7719 79.9913 27.8862C79.9514 27.9978 79.9647 28.1201 80.0285 28.2211L80.5204 29.008C80.5948 29.125 80.7197 29.1915 80.85 29.1915C80.9165 29.1915 80.9829 29.1755 81.0441 29.141C81.1584 29.0745 81.2833 29.016 81.4827 28.9203L81.5757 28.8751C84.2687 27.6283 86.2918 26.23 88.1314 24.3398L88.158 24.3133C88.5461 23.9278 88.8066 23.6274 88.8066 23.4253C88.8066 23.2233 88.3574 22.2344 88.0091 22.2344H88.0065Z" fill="white"/>
<path d="M97.2094 23.7725C97.9351 23.7725 98.5226 23.1796 98.5226 22.4512C98.5226 21.7228 97.9325 21.1406 97.2094 21.1406C96.4863 21.1406 95.8828 21.7281 95.8828 22.4512C95.8828 23.1743 96.4783 23.7725 97.2094 23.7725ZM97.2094 21.9435C97.4858 21.9435 97.7198 22.1774 97.7198 22.4512C97.7198 22.725 97.4912 22.9723 97.2094 22.9723C96.9276 22.9723 96.6857 22.7437 96.6857 22.4512C96.6857 22.1588 96.9196 21.9435 97.2094 21.9435Z" fill="white"/>
<path d="M98.5476 26.3243L98.4652 26.4173L98.5369 26.3163H98.5343C97.2317 25.447 96.1258 24.357 94.9162 23.1262L94.8364 23.0438C94.3818 22.5759 93.8661 22.0469 93.1457 22.0469C92.6751 22.0469 92.1913 22.3207 91.9228 22.5546C91.75 22.6982 91.5745 22.8524 91.3938 23.0092C90.7611 23.5595 90.1044 24.1284 89.4239 24.5139C89.2511 24.6096 89.0703 24.7266 89.0703 24.8861C89.0703 25.1439 89.921 26.1249 90.2161 26.1249C90.3783 26.1249 90.4846 26.0186 90.5617 25.9388L90.583 25.9175C91.0083 25.4603 91.7979 24.7053 92.3349 24.2241C92.5316 24.0487 92.9011 23.7217 93.1457 23.7217C93.2999 23.7217 93.4727 23.9025 93.6003 24.0327L93.6667 24.0992C94.6929 25.1812 95.7031 26.2339 96.7824 27.2255C97.2423 27.6508 97.5108 27.8343 97.6836 27.8343C98.1143 27.8343 98.7815 26.9304 98.7815 26.6566C98.7815 26.4891 98.6406 26.3881 98.5476 26.3243Z" fill="white"/>
<path d="M104.118 24.1042C104.08 24.1042 103.995 24.1095 103.884 24.1149C103.679 24.1255 103.387 24.1414 103.155 24.1414L100.941 24.1733C100.733 24.1733 100.438 24.16 100.228 24.1468C100.109 24.1414 100.013 24.1361 99.9758 24.1361C99.6328 24.1361 99.6328 24.3966 99.6328 25.0267C99.6328 25.3829 99.6328 25.7498 99.9678 25.7498C100.133 25.7498 100.3 25.7445 100.465 25.7365C100.624 25.7312 100.784 25.7259 100.941 25.7259L103.155 25.694C103.312 25.694 103.472 25.6993 103.631 25.7046C103.796 25.7099 103.961 25.7179 104.126 25.7179C104.461 25.7179 104.461 25.3617 104.461 24.9815C104.461 24.3408 104.461 24.1016 104.118 24.1016V24.1042Z" fill="white"/>
<path d="M105.823 21.7188L105.892 21.6125L105.826 21.7188C106.28 21.9979 107.083 22.5323 107.402 22.8167C107.58 22.9789 107.819 23.173 107.968 23.173C108.269 23.173 108.885 22.4685 108.885 22.1255C108.885 22.0006 108.792 21.8198 108.101 21.3413C107.171 20.6581 106.615 20.3125 106.453 20.3125C106.075 20.3125 105.57 21.1605 105.57 21.3838C105.57 21.5593 105.714 21.6497 105.82 21.7161L105.823 21.7188Z" fill="white"/>
<path d="M113.404 22.2559C113.25 22.216 113.138 22.3888 113.101 22.434C111.28 24.7469 108.279 26.8364 105.804 27.5595C105.774 27.5674 105.743 27.5754 105.713 27.5834C105.556 27.6233 105.344 27.6791 105.344 27.8811C105.344 28.03 105.721 28.8196 105.798 28.9764C105.865 29.1146 106 29.1944 106.144 29.1944C106.2 29.1944 106.253 29.1838 106.306 29.1598L106.973 28.8568C109.666 27.61 111.689 26.2117 113.529 24.3215L113.553 24.2976C113.941 23.9121 114.119 23.6489 114.223 23.4735C114.273 23.3884 114.297 23.213 114.273 23.1518C114.154 22.8275 113.909 22.3809 113.401 22.2506L113.404 22.2559Z" fill="white"/>
<path d="M14.6641 22.0049C14.4939 21.8348 14.2706 21.7444 14.0181 21.7444H9.34191C9.46153 21.3058 9.66889 20.8565 9.95334 20.4072C10.3627 19.7665 10.9077 19.2349 11.5776 18.8255C12.7048 18.1423 13.5342 17.4112 14.042 16.6509C14.563 15.8693 14.8289 15.0266 14.8289 14.152C14.8289 13.5033 14.6747 12.9185 14.369 12.408C14.0633 11.8976 13.6326 11.4935 13.0903 11.2091C12.5586 10.93 11.9472 10.7891 11.2719 10.7891C10.4159 10.7891 9.65028 11.0097 9.00429 11.4404C8.35563 11.8737 7.86648 12.4851 7.55545 13.2561C7.4624 13.4874 7.4624 13.7293 7.55811 13.9552C7.65381 14.1812 7.82661 14.354 8.0446 14.4391C8.27056 14.5401 8.51248 14.5401 8.74376 14.4444C8.97239 14.3487 9.14252 14.1732 9.23823 13.9366C9.41102 13.4927 9.66092 13.1683 10.0065 12.945C10.3574 12.7164 10.7721 12.6048 11.2746 12.6048C11.8142 12.6048 12.2316 12.7457 12.5559 13.0381C12.8643 13.3146 13.0132 13.6814 13.0132 14.152C13.0132 14.4444 12.9547 14.7554 12.8377 15.0771C12.7234 15.3934 12.4975 15.7364 12.1678 16.1006C11.8249 16.4754 11.3118 16.8742 10.6445 17.2836C9.96929 17.685 9.38444 18.1821 8.90327 18.7617C8.42475 19.3385 8.04991 19.9659 7.78939 20.6252C7.5262 21.2951 7.39062 21.9784 7.39062 22.6536C7.39062 22.8955 7.48367 23.1162 7.66178 23.2943C7.83724 23.4697 8.05789 23.5628 8.2998 23.5628H14.0234C14.2839 23.5628 14.5099 23.4644 14.6827 23.281C14.8448 23.1055 14.9326 22.8902 14.9326 22.6536C14.9326 22.401 14.8422 22.1777 14.6694 22.0049H14.6641Z" fill="white"/>
<path d="M22.3574 19.2212C22.1899 19.0431 21.9666 18.9474 21.7061 18.9474H20.5311V11.6953C20.5311 11.4533 20.4407 11.2354 20.2679 11.0626C20.0977 10.8924 19.8744 10.8047 19.6166 10.8047L19.5341 10.81C19.5076 10.81 19.481 10.8153 19.4464 10.8233L19.356 10.8446C19.3215 10.8552 19.2869 10.8658 19.263 10.8765C19.2231 10.8924 19.1859 10.911 19.1646 10.927L19.1327 10.9456C19.053 10.9961 18.9812 11.0599 18.9307 11.1184C18.8908 11.1636 18.8563 11.2114 18.8297 11.2593L13.7228 19.3568C13.5128 19.6466 13.4995 19.9922 13.683 20.2979C13.8478 20.5956 14.1243 20.7605 14.4619 20.7605H18.7127V22.8845C18.7127 23.1344 18.8111 23.3551 18.9945 23.5279C19.1699 23.6901 19.3853 23.7751 19.6219 23.7751C19.8744 23.7751 20.0977 23.6847 20.2705 23.5146C20.4407 23.3445 20.5311 23.1265 20.5311 22.8845V20.7605H21.7061C21.9719 20.7605 22.2005 20.6595 22.3707 20.4654C22.5196 20.2926 22.5993 20.0799 22.5993 19.8513C22.5993 19.6041 22.5169 19.3861 22.36 19.2159L22.3574 19.2212ZM18.7127 14.8189V18.9474H16.1128L16.1393 18.9049C16.3254 18.6045 16.5939 18.1765 16.9475 17.6235C17.3011 17.0679 17.7557 16.3448 18.3139 15.4543C18.4415 15.2522 18.5745 15.0396 18.7127 14.8189Z" fill="white"/>
<path d="M5.35938 11.8493C5.35938 11.3416 5.69168 10.9375 6.30843 10.9375C6.71251 10.9375 7.16444 11.2087 7.16444 11.9317C7.16444 12.5831 6.87999 13.4231 6.60617 14.0027C6.47591 14.2738 6.3935 14.3217 6.10639 14.3217H5.97613C5.79801 14.3217 5.7156 14.2977 5.7156 14.2153C5.7156 14.1675 5.73953 14.1196 5.79801 14.0133C6.02398 13.6119 6.24995 13.0669 6.24995 12.8649C6.24995 12.724 6.15424 12.6522 5.98942 12.6176C5.60927 12.5113 5.35938 12.2401 5.35938 11.8493Z" fill="white"/>
<path d="M27.504 8.05263L14.8234 0.3884C14.5522 0.210286 14.2385 0.122558 13.9248 0.117241C13.5872 0.114583 13.2496 0.210286 12.9625 0.409668L0.962348 8.0287L0.90918 8.06592C0.340278 8.47797 0 9.13992 0 9.83377V28.8494C0 29.4848 0.513075 29.9979 1.14844 29.9979H12.3882C12.5477 29.9979 12.6753 29.8703 12.6753 29.7108V28.0838C12.6753 27.9243 12.5477 27.7967 12.3882 27.7967H2.48828C2.27561 27.7967 2.10547 27.6239 2.10547 27.4139V10.1501C2.10547 9.9534 2.20649 9.77262 2.37131 9.66629L13.6138 2.49121C13.7095 2.43007 13.8185 2.40082 13.9275 2.40082C14.0285 2.40082 14.1322 2.42741 14.2225 2.48324L26.0791 9.68224C26.2492 9.78592 26.3556 9.97201 26.3556 10.174V27.4166C26.3556 27.6292 26.1854 27.7994 25.9728 27.7994H15.472C15.3125 27.7994 15.1849 27.927 15.1849 28.0865V29.7134C15.1849 29.8729 15.3125 30.0005 15.472 30.0005H27.3126C27.948 30.0005 28.461 29.4875 28.461 28.8521V9.85238C28.461 9.13726 28.1048 8.46468 27.5093 8.05263H27.504Z" fill="white"/>
</svg>
