<svg width="80" height="119" viewBox="0 0 80 119" fill="none" xmlns="http://www.w3.org/2000/svg">
<path d="M5.21516 118.9H0.715913C0.531558 118.9 0.367134 118.83 0.232605 118.696C0.0980761 118.561 0.0283203 118.392 0.0283203 118.212C0.0283203 117.684 0.132954 117.151 0.342221 116.628C0.546506 116.11 0.840477 115.621 1.21417 115.168C1.59284 114.714 2.05124 114.326 2.57441 114.012C3.10256 113.688 3.50614 113.374 3.78018 113.075C4.04426 112.786 4.21865 112.512 4.31332 112.263C4.40799 112.004 4.45283 111.76 4.45283 111.526C4.45283 111.147 4.33325 110.853 4.08412 110.629C3.82503 110.395 3.4912 110.285 3.0627 110.285C2.66409 110.285 2.33026 110.375 2.05124 110.554C1.7772 110.733 1.57291 110.992 1.43838 111.346C1.36364 111.526 1.23908 111.66 1.06469 111.73C0.890302 111.805 0.705948 111.805 0.536541 111.73C0.372117 111.665 0.237588 111.536 0.167832 111.361C0.0980761 111.192 0.0930935 111.007 0.167832 110.833C0.411977 110.23 0.790651 109.752 1.29887 109.413C1.80211 109.074 2.40002 108.905 3.06768 108.905C3.59085 108.905 4.06917 109.014 4.48272 109.229C4.90624 109.448 5.24007 109.762 5.47923 110.16C5.7184 110.559 5.83798 111.017 5.83798 111.521C5.83798 112.203 5.63369 112.861 5.22512 113.474C4.8315 114.067 4.17879 114.64 3.29688 115.178C2.76872 115.502 2.33524 115.92 2.01138 116.428C1.7772 116.797 1.61277 117.161 1.5181 117.52H5.23011C5.42443 117.52 5.59383 117.589 5.72338 117.719C5.85293 117.848 5.92268 118.018 5.92268 118.212C5.92268 118.392 5.85791 118.556 5.73334 118.691C5.6038 118.83 5.42941 118.905 5.23509 118.905L5.21516 118.9Z" fill="#303030"/>
<path d="M9.48999 118.98C8.84226 118.98 8.30912 118.82 7.90554 118.506C7.5169 118.202 7.21795 117.789 7.02363 117.285C6.83927 116.812 6.71969 116.274 6.6599 115.686C6.60509 115.123 6.5752 114.535 6.5752 113.942C6.5752 113.349 6.60509 112.761 6.6599 112.198C6.71969 111.61 6.83927 111.072 7.02363 110.599C7.21795 110.096 7.5169 109.682 7.90554 109.378C8.30912 109.064 8.84226 108.905 9.48999 108.905C10.1377 108.905 10.641 109.059 11.0396 109.358C11.4282 109.652 11.7222 110.056 11.9215 110.559C12.1058 111.027 12.2254 111.565 12.2852 112.158C12.34 112.731 12.3699 113.334 12.3699 113.947C12.3699 114.56 12.34 115.178 12.2852 115.751C12.2254 116.344 12.1008 116.882 11.9215 117.345C11.7272 117.843 11.4282 118.247 11.0396 118.536C10.641 118.835 10.1228 118.989 9.48999 118.989V118.98ZM9.48999 110.26C9.2857 110.26 9.09138 110.295 8.90703 110.37C8.75257 110.429 8.59811 110.569 8.46358 110.773C8.30912 111.002 8.18456 111.366 8.09487 111.854C7.99522 112.368 7.9454 113.07 7.9454 113.932C7.9454 114.794 7.99522 115.507 8.09487 116.02C8.18954 116.503 8.31411 116.867 8.46857 117.096C8.60808 117.3 8.75755 117.44 8.91201 117.5C9.31062 117.659 9.76901 117.644 10.1128 117.485C10.2722 117.41 10.4167 117.261 10.5413 117.041C10.6858 116.792 10.7954 116.418 10.8801 115.935C10.9648 115.432 11.0097 114.754 11.0097 113.932C11.0097 113.11 10.9648 112.437 10.8801 111.929C10.7954 111.446 10.6858 111.077 10.5413 110.823C10.4167 110.604 10.2722 110.454 10.1128 110.38C9.93344 110.295 9.72915 110.255 9.49995 110.255L9.48999 110.26Z" fill="#303030"/>
<path d="M18.2796 118.885H13.7804C13.596 118.885 13.4316 118.815 13.2971 118.681C13.1625 118.546 13.0928 118.377 13.0928 118.198C13.0928 117.669 13.1974 117.136 13.4067 116.613C13.611 116.095 13.9049 115.607 14.2786 115.153C14.6573 114.7 15.1157 114.311 15.6438 113.997C16.172 113.673 16.5756 113.359 16.8496 113.061C17.1087 112.772 17.2881 112.502 17.3828 112.248C17.4774 111.989 17.5223 111.745 17.5223 111.511C17.5223 111.132 17.4027 110.838 17.1536 110.614C16.8945 110.38 16.5606 110.27 16.1321 110.27C15.7335 110.27 15.3997 110.36 15.1207 110.539C14.8466 110.719 14.6423 110.978 14.5078 111.332C14.4331 111.511 14.3085 111.645 14.1341 111.715C13.9597 111.79 13.7754 111.79 13.606 111.715C13.4416 111.65 13.307 111.521 13.2373 111.352C13.1625 111.182 13.1625 110.998 13.2373 110.818C13.4814 110.216 13.8601 109.737 14.3683 109.398C14.8715 109.06 15.4695 108.89 16.1371 108.89C16.6603 108.89 17.1386 109 17.5522 109.214C17.9757 109.433 18.3095 109.747 18.5487 110.146C18.7878 110.544 18.9074 111.003 18.9074 111.506C18.9074 112.189 18.7031 112.846 18.2946 113.459C17.896 114.052 17.2482 114.625 16.3663 115.163C15.8382 115.487 15.4047 115.906 15.0808 116.414C14.8466 116.783 14.6822 117.146 14.5875 117.505H18.2995C18.4939 117.505 18.6633 117.575 18.7928 117.704C18.9224 117.834 18.9921 118.003 18.9921 118.198C18.9921 118.377 18.9273 118.541 18.8028 118.671C18.6683 118.81 18.4988 118.885 18.3045 118.885H18.2796Z" fill="#303030"/>
<path d="M23.3012 118.975C23.1219 118.975 22.9624 118.91 22.8279 118.785C22.6884 118.656 22.6136 118.486 22.6136 118.302V116.618H19.2703C19.0162 116.618 18.802 116.488 18.6824 116.259C18.5429 116.04 18.5578 115.771 18.7272 115.547L22.7232 109.204C22.8179 109.054 22.9574 108.955 23.1368 108.91C23.3212 108.865 23.5055 108.895 23.6699 109.005C23.8792 109.159 23.9838 109.358 23.9838 109.578C23.9838 109.588 23.9838 109.593 23.9838 109.603C23.9838 109.612 23.9838 109.622 23.9838 109.627V115.248H24.9255C25.1199 115.248 25.2893 115.318 25.4138 115.452C25.5334 115.582 25.5932 115.746 25.5932 115.93C25.5932 116.105 25.5334 116.264 25.4188 116.394C25.2942 116.538 25.1199 116.613 24.9206 116.613H23.9789V118.297C23.9789 118.476 23.9091 118.641 23.7845 118.77C23.655 118.9 23.4856 118.965 23.2962 118.965L23.3012 118.975ZM20.516 115.253H22.6136V111.919C22.4891 112.119 22.3695 112.308 22.2549 112.487C21.8214 113.185 21.4627 113.748 21.1886 114.181C20.9146 114.615 20.7053 114.944 20.5558 115.183L20.511 115.253H20.516Z" fill="#303030"/>
<path d="M39.064 61.521H25.626C25.9499 60.1408 26.5677 58.7258 27.4745 57.3107C28.6404 55.4871 30.2 53.9674 32.1033 52.8065C35.2025 50.9281 37.4795 48.9201 38.8647 46.8424C40.2847 44.7148 41.0022 42.4328 41.0022 40.0561C41.0022 38.3122 40.5886 36.7278 39.7665 35.3576C38.9444 33.9824 37.7884 32.9012 36.3235 32.1389C34.8836 31.3865 33.2294 31.0078 31.4058 31.0078C29.0789 31.0078 27.0112 31.6007 25.2623 32.7716C23.5034 33.9425 22.188 35.5967 21.341 37.6894C21.1118 38.2574 21.1168 38.8504 21.346 39.3984C21.5802 39.9565 22.0087 40.37 22.5418 40.5793C23.0899 40.8234 23.6728 40.8234 24.2359 40.5893C24.7889 40.3551 25.2075 39.9316 25.4417 39.3486C25.9449 38.0531 26.6873 37.0965 27.7037 36.4338C28.7351 35.7612 29.9459 35.4373 31.4058 35.4373C32.9902 35.4373 34.2259 35.8558 35.1825 36.7228C36.1093 37.5599 36.5577 38.6511 36.5577 40.0611C36.5577 40.9081 36.3833 41.815 36.0445 42.7467C35.7107 43.6685 35.058 44.66 34.1163 45.6964C33.1447 46.7626 31.6848 47.8987 29.7964 49.0546C27.9479 50.1508 26.3435 51.511 25.0281 53.1005C23.7177 54.6799 22.6913 56.3989 21.9788 58.2076C21.2563 60.0362 20.8926 61.8996 20.8926 63.7382C20.8926 64.3262 21.1218 64.8693 21.5503 65.2978C21.9788 65.7263 22.5219 65.9505 23.1098 65.9505H39.054C39.6868 65.9505 40.2448 65.7163 40.6634 65.2679C41.062 64.8394 41.2712 64.3112 41.2712 63.7382C41.2712 63.1204 41.052 62.5723 40.6335 62.1538C40.2149 61.7402 39.6718 61.521 39.054 61.521H39.064Z" fill="#323232"/>
<path d="M62.074 54.3811C61.6704 53.9476 61.1224 53.7184 60.4896 53.7184H56.9021V33.2002C56.9021 32.6123 56.6829 32.0792 56.2644 31.6606C55.8458 31.2471 55.3027 31.0278 54.6849 31.0278H54.5603C54.5304 31.0378 54.5005 31.0378 54.4707 31.0428C54.4059 31.0478 54.3461 31.0577 54.2763 31.0677L54.0422 31.1225C53.9575 31.1474 53.8777 31.1723 53.813 31.2022C53.7183 31.2421 53.6336 31.2869 53.5738 31.3218L53.4941 31.3666C53.2998 31.4912 53.1204 31.6457 53.0008 31.7951C52.9061 31.9048 52.8214 32.0243 52.7467 32.1439L38.5066 54.7199C37.9983 55.4224 37.9684 56.2495 38.4169 57.0019C38.8205 57.7293 39.4931 58.1329 40.3102 58.1329H52.4677V64.3661C52.4677 64.969 52.7068 65.5071 53.1553 65.9306C53.5838 66.3242 54.1119 66.5335 54.6849 66.5335C55.3027 66.5335 55.8508 66.3143 56.2694 65.9007C56.6829 65.4872 56.9021 64.954 56.9021 64.3661V58.1329H60.4896C61.1373 58.1329 61.6954 57.8888 62.0989 57.4204C62.4677 56.9969 62.662 56.4787 62.662 55.9157C62.662 55.3128 62.4577 54.7747 62.079 54.3611L62.074 54.3811ZM52.4627 40.8136V53.7184H44.3411L44.7098 53.1205C45.233 52.2834 45.9804 51.0926 46.9619 49.553C47.9485 48.0084 49.2141 45.9904 50.7686 43.5091C51.2918 42.6721 51.8548 41.7752 52.4627 40.8136Z" fill="#323232"/>
<path d="M14.9376 33.6089C14.9376 32.1938 15.8644 31.0728 17.5833 31.0728C18.7094 31.0728 19.965 31.8301 19.965 33.8431C19.965 35.6567 19.1728 37.9935 18.4104 39.6079C18.0467 40.3652 17.8175 40.4997 17.0203 40.4997H16.6566C16.1583 40.4997 15.9291 40.435 15.9291 40.2008C15.9291 40.0712 15.9939 39.9367 16.1583 39.6427C16.7861 38.5217 17.4139 37.007 17.4139 36.4489C17.4139 36.0553 17.1499 35.856 16.6865 35.7564C15.6302 35.4574 14.9326 34.7001 14.9326 33.6139L14.9376 33.6089Z" fill="#323232"/>
<path d="M0.110832 97.1616C-0.0187147 97.0071 -0.0187147 96.7779 0.110832 96.6234C0.16564 96.5587 0.220448 96.4989 0.260308 96.454C1.96434 94.6454 3.4043 92.2836 4.21147 89.9418C4.28123 89.7625 4.32109 89.603 4.53534 89.603L5.99025 90.1611C6.10983 90.2059 6.15965 90.3454 6.09986 90.455C6.00021 90.6394 5.88561 90.8786 5.81087 91.038C5.39732 92.0196 4.78447 93.1954 4.22642 94.1272V95.6568V102.687C4.22642 103.474 4.2613 104.262 4.2613 105.029C4.2613 105.567 4.062 105.657 3.32956 105.657C2.59713 105.657 2.41277 105.532 2.41277 105.029C2.41277 104.242 2.44765 103.474 2.44765 102.687V97.2861C2.44765 97.1964 2.41277 97.0918 2.30316 97.0918C2.2334 97.0918 2.19354 97.1117 2.15866 97.1616C2.02413 97.331 1.68034 97.7694 1.38138 98.0285C1.20699 98.178 0.942918 98.1531 0.793442 97.9787L0.105849 97.1715L0.110832 97.1616ZM11.481 97.6498C11.481 97.9887 11.6255 98.1332 11.9843 98.1332H12.7017C13.3495 98.1332 13.9773 98.0983 14.625 98.0983C15.1083 98.0983 15.0734 98.3673 15.0734 98.9553C15.0734 99.5432 15.0934 99.8123 14.6051 99.8123C13.9773 99.8123 13.3495 99.7575 12.7017 99.7575H11.9843C11.6255 99.7575 11.481 99.9169 11.481 100.261V103.41C11.481 103.689 11.7052 103.913 11.9843 103.913H13.5837C14.2663 103.913 14.9289 103.878 15.5966 103.878C16.065 103.878 16.045 104.127 16.045 104.755C16.045 105.383 16.065 105.632 15.5966 105.632C14.9339 105.632 14.2663 105.597 13.5837 105.597H7.56972C6.90704 105.597 6.22443 105.632 5.55676 105.632C5.0884 105.632 5.10833 105.383 5.10833 104.755C5.10833 104.077 5.10833 103.878 5.57669 103.878C6.23937 103.878 6.90704 103.913 7.56972 103.913H9.13424C9.41326 103.913 9.63748 103.689 9.63748 103.41V100.261C9.63748 99.9219 9.49298 99.7575 9.13424 99.7575H8.56124C7.93344 99.7575 7.28571 99.8123 6.65791 99.8123C6.1746 99.8123 6.18955 99.5781 6.18955 98.9553C6.18955 98.3673 6.16962 98.0983 6.63798 98.0983C7.28571 98.0983 7.91351 98.1332 8.56124 98.1332H9.13424C9.49298 98.1332 9.63748 97.9887 9.63748 97.6498V95.308C9.63748 94.9692 9.49298 94.8247 9.13424 94.8247H7.89358C7.32059 94.8247 6.72766 94.8596 6.13474 94.8596C5.66638 94.8596 5.68631 94.6254 5.68631 93.9827C5.68631 93.3399 5.66638 93.1257 6.15467 93.1257C6.72766 93.1257 7.32059 93.1606 7.89856 93.1606H10.1457C10.2703 93.1406 10.3998 93.1058 10.3998 92.9663C10.3998 92.8965 10.3799 92.8566 10.345 92.8068C9.78695 92.1989 9.21396 91.6259 8.6011 91.0878C8.49149 90.9782 8.35198 90.8536 8.35198 90.7141C8.35198 90.4451 9.17908 89.7126 9.53782 89.7126C9.82681 89.7126 10.8134 90.749 11.0475 90.9832C11.2618 91.1974 12.0889 92.0196 12.0889 92.2886C12.0889 92.4829 11.6953 92.8068 11.5508 92.9314C11.5159 92.9662 11.496 92.9862 11.496 93.041C11.496 93.1307 11.5657 93.1656 11.6405 93.1656H13.4342C14.0271 93.1656 14.62 93.1307 15.193 93.1307C15.6963 93.1307 15.6614 93.3798 15.6614 94.0076C15.6614 94.6354 15.6813 94.8646 15.193 94.8646C14.62 94.8646 14.0271 94.8297 13.4342 94.8297H11.9992C11.6405 94.8297 11.496 94.9742 11.496 95.313V97.6548L11.481 97.6498Z" fill="#303030"/>
<path d="M28.5706 95.7814C27.7784 96.0853 26.6673 96.4241 25.2472 96.8028C24.9034 96.9274 24.7988 97.0719 24.7988 97.4306V98.5916C24.7988 98.8407 24.9084 99.0201 25.1924 99.0201H25.2622L30.2547 98.3773C30.5437 98.3424 32.2128 98.0933 32.2826 98.0933C32.7659 98.0933 32.8406 99.1147 32.8406 99.4685C32.8406 99.8222 32.6264 99.8422 31.8192 99.9169C31.4954 99.9518 31.0818 99.9867 30.5437 100.061L25.2622 100.724C24.9184 100.759 24.7938 100.938 24.7938 101.277V103.131C24.7938 103.848 24.9184 103.973 25.6757 103.973H29.1436C29.9707 103.973 30.1501 103.813 30.3842 102.129C30.454 101.681 30.5088 101.591 30.8526 101.591C31.2113 101.591 32.1829 101.681 32.1829 102.144C32.1829 102.662 31.6797 104.526 31.3558 104.954C30.8875 105.562 30.3145 105.632 29.6119 105.632H25.1575C23.593 105.632 22.9652 105.363 22.9652 103.788V101.506C22.9652 101.257 22.8556 101.078 22.5716 101.078H22.5018L19.2881 101.491C19.0738 101.526 17.3499 101.775 17.315 101.775C16.7769 101.775 16.7021 100.809 16.7021 100.415C16.7021 100.056 16.9015 100.041 17.7236 99.9667C18.0275 99.9319 18.4411 99.897 18.9792 99.8222L22.5018 99.3738C22.8407 99.3389 22.9702 99.1596 22.9702 98.8208V97.8392C22.9702 97.605 22.8805 97.4107 22.6115 97.4107C22.5766 97.4107 22.467 97.4456 22.4321 97.4456C21.6797 97.5901 19.8262 97.9089 19.1436 97.9089C18.6055 97.9089 18.4261 96.8178 18.4261 96.6185C18.4261 96.3345 18.6752 96.2448 19.2682 96.19C21.6399 95.9757 25.7853 95.1536 27.873 94.1122C27.9627 94.0774 28.1421 93.9677 28.2318 93.9677C28.3912 93.9677 29.0041 94.7351 29.1834 94.9493C29.2482 95.034 29.3329 95.1187 29.3977 95.2034C29.4924 95.313 29.4376 95.4874 29.303 95.5323L28.5756 95.7764L28.5706 95.7814ZM23.8073 89.8721C23.8073 89.6379 23.9518 89.603 24.1311 89.603C24.45 89.603 25.0479 89.603 25.4814 89.603C25.596 89.603 25.6907 89.6977 25.6857 89.8173L25.6658 90.9334V91.1127C25.7006 91.4516 25.8252 91.596 26.169 91.596H29.2383C29.9009 91.596 30.5686 91.5761 31.2313 91.5761C31.7345 91.5761 32.2527 91.7007 32.2527 92.2936C32.2527 92.4381 32.2178 92.8666 32.2178 93.2752V94.2966C32.2178 94.5457 32.2527 94.8497 32.2527 95.0639C32.2527 95.4924 31.9488 95.4575 31.2811 95.4575C30.6134 95.4575 30.3095 95.4775 30.3095 95.0639C30.3095 94.8148 30.3643 94.5457 30.3643 94.2966V93.7784C30.3643 93.4197 30.2049 93.2752 29.8611 93.2752H19.607C19.2632 93.2752 19.1037 93.4197 19.1037 93.7784V94.2418C19.1037 94.476 19.1585 94.8347 19.1585 95.029C19.1585 95.4426 18.8148 95.4226 18.172 95.4226C17.4894 95.4226 17.2004 95.4227 17.2004 95.0091C17.2004 94.7749 17.2552 94.4909 17.2552 94.2418V93.2752C17.2552 92.8467 17.2203 92.4879 17.2203 92.2936C17.2203 91.6658 17.7385 91.5612 18.6553 91.5612C19.0888 91.5612 19.6269 91.596 20.2348 91.596H23.304C23.5831 91.596 23.8073 91.3668 23.8073 91.0878V89.8721Z" fill="#303030"/>
<path d="M46.8671 93.8978C46.9468 93.9875 46.9318 94.1319 46.8372 94.2017L46.2044 94.675C44.9986 95.4972 44.321 95.9456 43.0056 96.6432C42.9707 96.678 42.9358 96.698 42.9358 96.7528C42.9358 96.8425 43.0056 96.8624 43.0803 96.8773H45.7908C46.2741 96.8773 46.7774 96.8425 47.2607 96.8425C47.744 96.8425 48.1027 96.967 48.1027 97.54C48.1027 97.9336 48.0679 98.3273 48.0679 98.7209V103.997C48.0679 104.446 48.1027 104.795 48.1027 105.243C48.1027 105.617 47.9234 105.617 47.1859 105.617C46.4485 105.617 46.2542 105.637 46.2542 105.258V105.044C46.2542 104.919 46.1546 104.815 46.025 104.815H40.2552C40.041 104.815 39.9563 104.839 39.9563 105.074C39.9762 105.592 39.9214 105.627 39.0245 105.627C38.2871 105.627 38.1077 105.607 38.1077 105.233C38.1077 104.785 38.1227 104.421 38.1227 103.972V99.249C38.1027 99.0547 38.033 98.8903 37.8187 98.8903C37.7639 98.8903 37.7091 98.9102 37.6593 98.9102C37.2457 99.0547 35.5915 99.6078 35.2527 99.6078C34.7844 99.6078 34.3359 98.5864 34.3359 98.3173C34.3359 98.0333 34.6598 97.9785 34.8741 97.9237C37.8536 97.2261 43.2099 95.4025 45.2926 93.1454C45.3474 93.0906 45.457 92.9561 45.5666 92.8664C45.6513 92.7966 45.7709 92.8066 45.8456 92.8813L46.872 93.8878L46.8671 93.8978ZM39.3235 91.9546C38.4615 93.1006 37.455 94.1369 36.304 95.0139C36.1247 95.1584 35.9104 95.3178 35.6762 95.3178C35.2826 95.3178 34.4206 94.7249 34.4206 94.3711C34.4206 94.2117 34.6349 94.0871 34.7595 93.9974C36.0001 93.1753 37.2557 91.9595 38.0629 90.7039C38.1177 90.6143 38.1874 90.5046 38.312 90.5046C38.4715 90.5046 39.1889 91.0577 39.5427 91.3168C39.6374 91.3866 39.6573 91.5211 39.5826 91.6108L39.3185 91.9546H39.3235ZM43.2049 91.3268V92.3631C43.2049 92.7368 43.2398 93.1155 43.2398 93.4892C43.2398 94.1519 43.0953 94.6701 42.4475 94.974C42.0539 95.1534 41.1371 95.2979 40.6887 95.2979C39.9513 95.2979 39.5925 95.3178 39.4132 94.9939C39.2687 94.7448 39.1989 94.3661 39.1989 94.0622C39.1989 93.7782 39.2537 93.5988 39.5776 93.5988C39.8466 93.5988 40.1157 93.6187 40.3848 93.6187C41.4062 93.6187 41.3912 93.4244 41.3912 92.4927V91.3318C41.3912 90.9381 41.4361 90.4598 41.3813 90.0662C41.3613 90.0313 41.3713 89.9516 41.3713 89.8968C41.3713 89.6825 41.5507 89.6277 41.73 89.6277C41.8945 89.6277 42.597 89.6178 42.9906 89.6277C43.1002 89.6277 43.1899 89.7224 43.1899 89.832L43.2049 91.3268ZM45.8606 99.1643C46.0997 99.1643 46.2941 98.97 46.2941 98.7308V98.6412C46.2941 98.402 46.0997 98.2127 45.8656 98.2127H40.3299C40.0908 98.2127 39.8965 98.407 39.8965 98.6461V98.7508C39.8965 98.98 40.0808 99.1643 40.31 99.1643H45.8606ZM39.8965 100.863C39.8965 101.103 40.0908 101.292 40.325 101.292H45.8606C46.0997 101.292 46.2941 101.098 46.2941 100.858V100.754C46.2941 100.515 46.0997 100.325 45.8656 100.325H40.3299C40.0908 100.325 39.8965 100.52 39.8965 100.759V100.863ZM39.8965 103.046C39.8965 103.275 40.0808 103.459 40.31 103.459H45.8805C46.1097 103.459 46.2941 103.275 46.2941 103.046V102.886C46.2941 102.647 46.0997 102.458 45.8656 102.458H40.3299C40.0908 102.458 39.8965 102.652 39.8965 102.891V103.051V103.046ZM48.7853 95.1733C48.606 95.1733 48.4814 95.0288 48.3917 94.9042C47.46 93.7782 46.3987 92.7568 45.2477 91.825C45.1232 91.7154 44.9438 91.5759 44.9438 91.3965C44.9438 91.0926 45.6613 90.5545 45.9503 90.5545C46.1496 90.5545 46.2741 90.6641 46.4336 90.7887C47.0066 91.252 47.5646 91.7353 48.0878 92.2535C48.4117 92.5575 49.8466 93.9526 49.8466 94.2914C49.8466 94.6302 49.0743 95.1683 48.7853 95.1683V95.1733Z" fill="#303030"/>
<path d="M61.0072 93.2951C61.7994 93.2951 62.5717 93.2603 63.359 93.2603C63.7177 93.2603 63.8273 93.3699 63.8273 94.0276V94.4561C63.8273 95.0091 63.7725 95.2084 63.2693 95.2084C62.5319 95.2084 61.7945 95.1736 61.0421 95.1736H59.6071C59.3032 95.1736 59.069 95.4077 59.069 95.7117V100.719C59.069 101.003 59.3032 101.237 59.6071 101.237H62.4073C63.1447 101.237 64.1313 101.202 64.6694 101.202C65.1178 101.202 65.1378 101.362 65.1378 102.239C65.1378 102.812 65.1378 103.171 64.6345 103.171C64.0964 103.171 63.1796 103.116 62.4073 103.116H53.7177C52.9454 103.116 52.0287 103.171 51.4905 103.171C50.9873 103.171 50.9873 102.832 50.9873 102.224C50.9873 101.367 51.0072 101.202 51.4557 101.202C51.9938 101.202 52.9654 101.237 53.7177 101.237H56.5179C56.8219 101.237 57.0561 101.003 57.0561 100.719V95.7117C57.0561 95.4077 56.8219 95.1736 56.5179 95.1736H55.083C54.3306 95.1736 53.5932 95.2084 52.8558 95.2084C52.3525 95.2084 52.2977 95.0141 52.2977 94.476V94.0475C52.2977 93.3699 52.4073 93.2603 52.7661 93.2603C53.5384 93.2603 54.3306 93.2951 55.1029 93.2951H61.0122H61.0072Z" fill="#303030"/>
<path d="M75.3974 93.3598C75.7113 93.3598 76.0601 93.3748 76.3441 93.31C76.3789 93.31 76.4288 93.2951 76.4587 93.2951C76.8224 93.2951 77.5548 94.2019 77.5548 94.4012C77.5548 94.5507 77.3555 94.7001 77.2559 94.7998C77.2061 94.8347 77.1413 94.8994 77.1064 94.9493C76.2743 95.8063 75.2629 96.733 74.3361 97.4605C73.9873 97.7246 73.9724 97.9089 73.9724 98.3374V101.676C73.9724 102.304 74.0073 102.931 74.0073 103.559C74.0073 104.122 74.0222 104.172 72.946 104.172C72.2833 104.172 72.1836 104.057 72.1836 103.743C72.1836 103.066 72.2335 102.388 72.2335 101.711V99.4635C72.2335 99.314 72.1189 99.1844 71.9694 99.1844C71.8349 99.1844 71.7203 99.2691 71.6206 99.319C71.0078 99.7176 68.1328 101.287 67.5698 101.287C67.2061 101.287 66.4736 100.38 66.4736 100.046C66.4736 99.8322 66.7078 99.7475 66.8722 99.6976C69.0795 98.9702 71.8349 97.5003 73.5638 95.9607C73.7282 95.8112 74.2464 95.4176 74.2464 95.2482C74.2464 95.019 73.9325 95.0688 73.7133 95.0688H70.6092C69.8966 95.0688 69.1792 95.1037 68.4667 95.1037C68.0182 95.1037 68.0531 94.8247 68.0531 94.162C68.0531 93.5691 68.0182 93.3349 68.4368 93.3349C68.651 93.3349 68.8702 93.3499 69.0845 93.3499C69.5827 93.3648 70.096 93.3648 70.6092 93.3648H75.4073L75.3974 93.3598ZM73.7531 90.9134C73.9674 91.1127 74.8344 91.89 74.8344 92.1341C74.8344 92.4131 74.0371 93.1755 73.7531 93.1755C73.5887 93.1755 73.4691 93.0609 73.3545 92.9463C72.7417 92.3035 72.0939 91.6907 71.3964 91.1426C71.2619 91.0429 71.0626 90.9134 71.0626 90.744C71.0626 90.4949 71.8947 89.7026 72.1737 89.7026C72.4378 89.7026 73.504 90.6792 73.7482 90.9084L73.7531 90.9134ZM78.2026 98.8805C78.4168 99.0798 79.3486 99.9368 79.3486 100.186C79.3486 100.465 78.5015 101.262 78.2175 101.262C78.0182 101.262 77.8687 101.048 77.7541 100.913C77.0715 100.101 76.4437 99.5232 75.6116 98.8954C75.5469 98.8307 75.4273 98.731 75.4273 98.6314C75.4273 98.3673 76.2743 97.59 76.5384 97.59C76.8025 97.59 77.9485 98.6463 78.1976 98.8805H78.2026Z" fill="#303030"/>
<path d="M31.7898 118.437C31.8247 118.686 31.8646 119 32.1934 119C32.3778 119 32.7365 118.92 33.0006 118.855L33.0355 118.845C33.1601 118.801 33.3544 118.731 33.3544 118.492C33.3544 118.372 33.2049 117.719 33.0405 116.972C32.9807 116.698 32.9309 116.469 32.9109 116.364L32.7714 115.587C32.7614 115.532 32.7714 115.477 32.8013 115.437C32.8212 115.412 32.8561 115.377 32.9159 115.368L34.6349 115.118C34.9637 115.069 35.2677 115.034 35.5716 115.004C36.2791 114.924 36.5183 114.894 36.5183 114.52C36.5183 114.441 36.5033 114.321 36.4934 114.217L36.4834 114.132C36.4834 114.132 36.4784 114.087 36.4734 114.067C36.4734 114.037 36.4685 114.007 36.4585 113.982C36.4236 113.733 36.3838 113.449 36.0549 113.449C36.02 113.449 35.9005 113.469 35.2976 113.569C34.9388 113.629 34.5352 113.698 34.4356 113.708L32.6718 113.952C32.5422 113.967 32.4426 113.893 32.4176 113.768L32.1685 112.478C32.1586 112.428 32.1685 112.373 32.1984 112.333C32.2183 112.303 32.2532 112.273 32.313 112.263L33.2697 112.124C33.5786 112.074 33.6932 112.074 33.9025 112.054L34.0818 112.034C34.7296 111.954 34.9737 111.93 34.9737 111.581C34.9737 111.461 34.9289 111.212 34.9039 111.043L34.879 110.913C34.8491 110.754 34.7993 110.485 34.5103 110.485C34.4157 110.485 33.0704 110.709 33.0604 110.709L32.0888 110.848C31.9343 110.863 31.8646 110.749 31.8347 110.639L31.7898 110.45C31.7799 110.395 31.7649 110.295 31.745 110.176C31.7101 109.966 31.6503 109.613 31.6503 109.523L31.6105 109.214C31.5856 109.02 31.4062 108.875 31.2268 108.88L30.4545 108.9C30.3399 108.9 30.2353 108.955 30.1655 109.045C30.0958 109.134 30.0709 109.244 30.0908 109.354C30.1257 109.533 30.1606 109.747 30.1954 109.947C30.2303 110.171 30.2652 110.375 30.2951 110.505L30.3599 110.804C30.3698 110.853 30.3748 110.893 30.3748 110.933C30.3748 111.028 30.31 111.102 30.2203 111.117L29.2338 111.257C28.8103 111.317 28.6558 111.352 28.4067 111.372C27.7789 111.441 27.5198 111.471 27.5198 111.81C27.5198 111.925 27.5597 112.174 27.5896 112.368L27.6145 112.532C27.6543 112.772 27.7938 112.916 27.9832 112.916C28.0778 112.916 29.4032 112.682 29.4182 112.682L30.4545 112.527C30.5891 112.503 30.6987 112.577 30.7236 112.722L30.9578 114.002C30.9677 114.057 30.9578 114.107 30.9279 114.152C30.898 114.192 30.8581 114.217 30.7983 114.222L28.9598 114.501C28.6209 114.55 28.307 114.585 28.0031 114.615C27.3952 114.67 27.1162 114.7 27.1162 115.044C27.1162 115.183 27.2009 115.711 27.2358 115.836C27.2607 115.941 27.3205 116.165 27.6045 116.165C27.6792 116.165 28.0629 116.1 28.7953 115.98C28.9647 115.95 29.1043 115.931 29.164 115.921L31.0474 115.642C31.172 115.627 31.2866 115.706 31.3115 115.826L31.466 116.648C31.5457 117.106 31.6902 117.814 31.7749 118.292L31.7998 118.442L31.7898 118.437Z" fill="#303030"/>
<path d="M44.047 112.846C44.047 112.846 44.027 112.846 43.4391 112.971C43.2448 113.011 43.0704 113.051 43.0206 113.061L41.1122 113.449C41.0574 113.459 41.0076 113.449 40.9628 113.424C40.9179 113.394 40.893 113.35 40.8781 113.29L40.7734 112.757C40.7186 112.532 40.6239 112.064 40.619 111.95L40.5592 111.685C40.5392 111.586 40.4745 111.496 40.3898 111.441C40.3001 111.386 40.1955 111.372 40.0958 111.396L39.4829 111.546C39.3833 111.571 39.2986 111.631 39.2488 111.72C39.194 111.805 39.179 111.91 39.2039 112.009C39.2189 112.064 39.2338 112.124 39.2438 112.194C39.3235 112.532 39.4182 112.941 39.4331 113.001L39.5527 113.544C39.5676 113.604 39.5577 113.664 39.5278 113.708C39.4979 113.753 39.4481 113.783 39.3883 113.793L38.5662 113.957C38.332 114.002 38.1476 114.037 37.9832 114.062C37.2607 114.182 37.0664 114.217 37.0664 114.511C37.0664 114.645 37.1661 115.123 37.2059 115.238C37.2458 115.323 37.3155 115.487 37.5397 115.487C37.6145 115.487 38.7405 115.253 38.8003 115.238L39.6723 115.059C39.6723 115.059 39.6972 115.059 39.7022 115.054C39.8018 115.054 39.8766 115.113 39.9015 115.213L40.3449 117.4C40.3848 117.58 40.4097 117.744 40.4346 117.884C40.4496 117.968 40.4595 118.043 40.4745 118.108C40.5492 118.596 40.604 118.985 40.9478 118.985C41.0873 118.985 41.4511 118.905 41.5706 118.875C41.75 118.82 41.9393 118.761 41.9393 118.512C41.9393 118.357 41.8198 117.829 41.6952 117.306L41.2119 114.964V114.884C41.2119 114.795 41.2816 114.715 41.3713 114.7L42.7366 114.426C42.7714 114.416 42.8013 114.411 42.8362 114.391C42.7963 114.516 42.2084 115.278 42.0639 115.432C42.0539 115.447 42.044 115.462 42.029 115.482C41.9742 115.552 41.8995 115.647 41.8995 115.761C41.8995 116.095 42.6369 116.354 42.8213 116.354C42.9907 116.354 43.0903 116.264 43.1551 116.19C43.2996 116.045 43.8028 115.278 43.9025 115.128C44.1367 114.77 44.4306 114.321 44.7246 114.017C44.7694 113.982 44.899 113.873 44.899 113.698C44.899 113.404 44.2762 112.846 44.0221 112.846H44.047Z" fill="#303030"/>
<path d="M46.0304 110.883C46.4738 111.157 47.2611 111.68 47.575 111.959C47.7494 112.119 47.9835 112.308 48.128 112.308C48.422 112.308 49.0249 111.616 49.0249 111.282C49.0249 111.157 48.9302 110.978 48.2576 110.515C47.3458 109.847 46.8027 109.508 46.6432 109.508C46.2745 109.508 45.7812 110.34 45.7812 110.559C45.7812 110.734 45.9208 110.818 46.0254 110.883H46.0304Z" fill="#303030"/>
<path d="M53.6033 111.381C53.4986 111.381 53.404 111.436 53.3093 111.556C51.6999 113.599 48.4862 115.851 45.9949 116.683C45.8803 116.723 45.7906 116.807 45.7508 116.917C45.7109 117.027 45.7258 117.146 45.7856 117.246L46.2689 118.018C46.3437 118.133 46.4633 118.198 46.5928 118.198C46.6576 118.198 46.7224 118.183 46.7822 118.148C46.8967 118.083 47.0163 118.023 47.2107 117.929L47.3003 117.884C49.9411 116.663 51.9241 115.293 53.7228 113.439L53.7478 113.414C54.1314 113.036 54.3805 112.742 54.3805 112.542C54.3805 112.343 53.9421 111.376 53.5983 111.376L53.6033 111.381Z" fill="#303030"/>
<path d="M62.6217 112.896C63.3342 112.896 63.9122 112.313 63.9122 111.601C63.9122 110.888 63.3342 110.315 62.6217 110.315C61.9092 110.315 61.3213 110.893 61.3213 111.601C61.3213 112.308 61.9042 112.896 62.6217 112.896ZM62.6217 111.102C62.8908 111.102 63.125 111.332 63.125 111.601C63.125 111.87 62.9008 112.109 62.6217 112.109C62.3427 112.109 62.1085 111.885 62.1085 111.601C62.1085 111.317 62.3377 111.102 62.6217 111.102Z" fill="#303030"/>
<path d="M63.9419 115.397L63.8622 115.492L63.9319 115.392C62.6564 114.54 61.5702 113.469 60.3843 112.263L60.3046 112.184C59.8612 111.725 59.3529 111.207 58.6454 111.207C58.182 111.207 57.7087 111.476 57.4496 111.705C57.2802 111.845 57.1058 111.999 56.9314 112.149C56.3086 112.687 55.6659 113.245 54.9982 113.624C54.8288 113.718 54.6494 113.833 54.6494 113.987C54.6494 114.241 55.4815 115.198 55.7705 115.198C55.9299 115.198 56.0346 115.093 56.1093 115.019L56.1292 114.999C56.5478 114.55 57.3201 113.808 57.8432 113.34C58.0375 113.17 58.3963 112.846 58.6355 112.846C58.7849 112.846 58.9593 113.021 59.0789 113.15L59.1437 113.215C60.1502 114.276 61.1367 115.308 62.198 116.279C62.6464 116.698 62.9155 116.877 63.0799 116.877C63.5034 116.877 64.1561 115.99 64.1561 115.721C64.1561 115.557 64.0166 115.457 63.9269 115.392L63.9419 115.397Z" fill="#303030"/>
<path d="M69.3928 113.22C69.3579 113.22 69.2732 113.22 69.1636 113.23C68.9643 113.24 68.6753 113.255 68.4511 113.255L66.2787 113.285C66.0744 113.285 65.7854 113.27 65.5811 113.26C65.4615 113.255 65.3718 113.25 65.332 113.25C64.9932 113.25 64.9932 113.504 64.9932 114.122C64.9932 114.471 64.9932 114.829 65.322 114.829C65.4864 114.829 65.6459 114.824 65.8103 114.819C65.9648 114.814 66.1242 114.81 66.2737 114.81L68.4461 114.78C68.6005 114.78 68.755 114.785 68.9144 114.79C69.0739 114.795 69.2383 114.8 69.3977 114.8C69.7266 114.8 69.7266 114.451 69.7266 114.077C69.7266 113.449 69.7266 113.215 69.3928 113.215V113.22Z" fill="#303030"/>
<path d="M71.0626 110.883C71.511 111.157 72.2933 111.68 72.6072 111.959C72.7816 112.119 73.0158 112.308 73.1603 112.308C73.4542 112.308 74.0621 111.616 74.0621 111.282C74.0621 111.157 73.9674 110.983 73.2948 110.515C72.383 109.847 71.8399 109.508 71.6804 109.508C71.3117 109.508 70.8135 110.34 70.8135 110.559C70.8135 110.734 70.953 110.818 71.0576 110.883H71.0626Z" fill="#303030"/>
<path d="M78.4912 111.416C78.3417 111.376 78.2321 111.546 78.1922 111.591C76.4085 113.858 73.4688 115.905 71.0423 116.613C71.0124 116.623 70.9825 116.628 70.9526 116.638C70.7981 116.678 70.5889 116.733 70.5889 116.932C70.5889 117.076 70.9576 117.849 71.0323 118.003C71.0971 118.138 71.2316 118.217 71.3711 118.217C71.4259 118.217 71.4807 118.207 71.5306 118.182L72.1833 117.884C74.824 116.663 76.8071 115.293 78.6108 113.439L78.6357 113.414C79.0194 113.036 79.1888 112.776 79.2934 112.607C79.3432 112.522 79.3681 112.353 79.3432 112.293C79.2286 111.974 78.9895 111.536 78.4862 111.411L78.4912 111.416Z" fill="#303030"/>
<path d="M34.5141 78.0432H6.93073C6.34279 78.0432 5.86447 77.5649 5.86447 76.977V50.9431H0V80.978C0 82.7468 1.42999 84.1768 3.1988 84.1768H34.5141C34.9576 84.1768 35.3163 83.818 35.3163 83.3746V78.8454C35.3163 78.402 34.9576 78.0432 34.5141 78.0432Z" fill="#5073B8"/>
<path d="M73.4179 50.9431V76.977C73.4179 77.5649 72.9396 78.0432 72.3516 78.0432H43.0991C42.6556 78.0432 42.2969 78.402 42.2969 78.8454V83.3746C42.2969 83.818 42.6556 84.1768 43.0991 84.1768H76.0836C77.8524 84.1768 79.2824 82.7468 79.2824 80.978V50.9431H73.4179Z" fill="#AF6DD7"/>
<path d="M38.7992 0.928245C37.8624 0.91828 36.9207 1.18734 36.1185 1.7404L2.6856 22.9711L2.53612 23.0707C0.946685 24.2217 0 26.0652 0 27.9985V51.0029H5.86447V28.8754C5.86447 28.3273 6.14349 27.8191 6.60188 27.5251L37.9272 7.5401C38.1913 7.37069 38.4952 7.29097 38.7992 7.29097V0.928245Z" fill="#35AD72"/>
<path d="M76.6264 23.0358L41.3001 1.68059C40.5427 1.18233 39.6708 0.938188 38.7988 0.928223V7.29094C39.0828 7.29094 39.3668 7.37067 39.6209 7.52014L72.6503 27.5749C73.1286 27.8639 73.4176 28.3821 73.4176 28.9401V50.9979H79.2821V28.0433C79.2821 26.0552 78.2905 24.1818 76.6264 23.0308V23.0358Z" fill="#EF8786"/>
</svg>
