<svg width="62" height="49" viewBox="0 0 62 49" fill="none" xmlns="http://www.w3.org/2000/svg">
<path d="M26.5735 36.2315C27.8092 36.5845 29.1172 36.7771 30.4733 36.7771C38.2728 36.7771 44.596 30.454 44.596 22.6544C44.596 14.8548 38.2728 8.53174 30.4733 8.53174C22.6737 8.53174 16.3506 14.8548 16.3506 22.6544C16.3506 26.5703 17.9394 30.1089 20.5152 32.6687L19.1992 39.4733L26.5815 36.2395L26.5735 36.2315Z" fill="#F57D14" stroke="#F57D14" stroke-width="2.40728" stroke-linecap="round" stroke-linejoin="round"/>
<path d="M11.1265 15.7215C10.4926 15.5369 9.81859 15.4406 9.12048 15.4406C5.1244 15.4406 1.89062 18.6744 1.89062 22.6705V26.0647C1.89062 30.0608 5.1244 33.2946 9.12048 33.2946C10.3402 33.2946 11.4957 32.9897 12.5067 32.452C10.8858 29.5152 9.97105 26.1369 9.97105 22.5501C9.96302 11.2038 19.1668 2 30.5131 2C41.8594 2 51.0632 11.2038 51.0632 22.5501C51.0632 32.9174 43.3921 41.4873 33.4099 42.8996" stroke="#F57D14" stroke-width="2.40728" stroke-linecap="round" stroke-linejoin="round"/>
<path d="M53.27 32.9254C52.0503 32.9254 50.8948 32.6205 49.8838 32.0829" stroke="#F57D14" stroke-width="2.40728" stroke-linecap="round" stroke-linejoin="round"/>
<path d="M53.2695 15.0796C57.2656 15.0796 60.4994 18.3134 60.4994 22.3094V25.7037C60.4994 29.6998 57.2656 32.9335 53.2695 32.9335" stroke="#F57D14" stroke-width="2.40728" stroke-linecap="round" stroke-linejoin="round"/>
<path d="M51.2637 15.3604C51.8976 15.1759 52.5716 15.0796 53.2697 15.0796" stroke="#F57D14" stroke-width="2.40728" stroke-linecap="round" stroke-linejoin="round"/>
<path d="M29.9269 47C31.8502 47 33.4094 45.4408 33.4094 43.5174C33.4094 41.5941 31.8502 40.0349 29.9269 40.0349C28.0035 40.0349 26.4443 41.5941 26.4443 43.5174C26.4443 45.4408 28.0035 47 29.9269 47Z" stroke="#F57D14" stroke-width="2.40728" stroke-linecap="round" stroke-linejoin="round"/>
<path d="M24.6793 24.5802C25.672 24.5802 26.4767 23.7755 26.4767 22.7828C26.4767 21.7901 25.672 20.9854 24.6793 20.9854C23.6866 20.9854 22.8818 21.7901 22.8818 22.7828C22.8818 23.7755 23.6866 24.5802 24.6793 24.5802Z" fill="white"/>
<path d="M30.4732 24.5802C31.4659 24.5802 32.2706 23.7755 32.2706 22.7828C32.2706 21.7901 31.4659 20.9854 30.4732 20.9854C29.4805 20.9854 28.6758 21.7901 28.6758 22.7828C28.6758 23.7755 29.4805 24.5802 30.4732 24.5802Z" fill="white"/>
<path d="M36.2662 24.5802C37.2589 24.5802 38.0636 23.7755 38.0636 22.7828C38.0636 21.7901 37.2589 20.9854 36.2662 20.9854C35.2735 20.9854 34.4688 21.7901 34.4688 22.7828C34.4688 23.7755 35.2735 24.5802 36.2662 24.5802Z" fill="white"/>
</svg>
