<?xml version="1.0" encoding="utf-8"?>
<!-- Generator: Adobe Illustrator 28.1.0, SVG Export Plug-In . SVG Version: 6.00 Build 0)  -->
<svg xmlns:xlink="http://www.w3.org/1999/xlink" version="1.1" id="レイヤー_1" xmlns="http://www.w3.org/2000/svg" x="0px"
	 y="0px" viewBox="0 0 35 34" style="enable-background:new 0 0 35 34;" xml:space="preserve">
<style type="text/css">
	.st0{fill:#FFFFFF;stroke:#FFFFFF;stroke-width:1.4473;stroke-linecap:round;stroke-linejoin:round;}
	.st1{fill:#F57D14;}
	.st2{fill:none;stroke:#FFFFFF;stroke-width:1.4473;stroke-linecap:round;stroke-linejoin:round;}
</style>
<path class="st0" d="M30.4,16.5c2.1-1.5,3.5-4,3.5-6.8V9.1c0-4.6-3.7-8.3-8.3-8.3h-3.2c-4.6,0-8.3,3.7-8.3,8.3v0.7
	c0,4.6,3.7,8.3,8.3,8.3h3.2c0.6,0,1.2-0.1,1.7-0.2l2.7,2.9L30.4,16.5L30.4,16.5z"/>
<path class="st1" d="M27.5,6.1c0,0.2,0,0.4-0.1,0.6c0,0.3-0.1,0.4-0.2,0.6c0,0.3-0.1,0.4-0.3,0.5c-0.1,0.1-0.3,0.3-0.4,0.5
	c-0.1,0.2-0.3,0.3-0.4,0.3c-0.1,0.1-0.3,0.1-0.4,0.3c-0.1,0.1-0.3,0.1-0.4,0.3c-0.1,0.1-0.3,0.2-0.4,0.3c-0.1,0.1-0.3,0.3-0.4,0.5
	c-0.1,0.2-0.1,0.4-0.1,0.7c0,0.4-0.1,0.6-0.3,0.8c-0.2,0.2-0.3,0.2-0.5,0.2c-0.2,0-0.4,0-0.5-0.2C23.1,11.4,23,11.3,23,11
	c0-0.3,0-0.6,0-0.8c0-0.3,0.1-0.4,0.2-0.6c0-0.1,0.1-0.4,0.2-0.5c0-0.1,0.3-0.4,0.4-0.5c0.1-0.1,0.2-0.2,0.3-0.3
	c0.2,0,0.2-0.2,0.4-0.3c0-0.1,0.3-0.1,0.3-0.3c0.1,0,0.2-0.2,0.3-0.3c0.1-0.1,0.2-0.3,0.3-0.6c0.1-0.2,0.1-0.5,0.1-0.7
	c0-0.1,0-0.4-0.1-0.6c0-0.1-0.2-0.3-0.3-0.5C25,5,24.9,4.9,24.7,4.8c-0.2-0.1-0.4,0-0.6-0.1c-0.3,0.1-0.7,0-0.9,0.2
	c-0.1,0-0.3,0.2-0.4,0.2c-0.1,0.1-0.3,0.2-0.4,0.3c-0.1,0.1-0.3,0.4-0.4,0.5c-0.1,0.1-0.4,0.3-0.6,0.3c-0.3,0-0.4-0.1-0.6-0.2
	c-0.2-0.2-0.3-0.4-0.3-0.6c0-0.2,0.1-0.5,0.2-0.6c0.1-0.2,0.2-0.3,0.3-0.4c0.1-0.1,0.3-0.2,0.4-0.4c0.2-0.1,0.2-0.1,0.4-0.3
	c0.1-0.1,0.3-0.1,0.5-0.2c0.2-0.1,0.3-0.2,0.5-0.2c0.1,0,0.3,0,0.5-0.1c0.3,0,0.7-0.1,1-0.1c0.2,0.1,0.4,0.1,0.7,0
	c0.2,0.1,0.4,0.1,0.7,0.2c0.3,0.1,0.4,0.2,0.7,0.3c0.2,0.1,0.4,0.4,0.6,0.5C27,4.3,27,4.5,27.1,4.6c0,0.2,0.2,0.3,0.2,0.5
	c0,0.2,0.1,0.3,0.1,0.5C27.5,5.8,27.5,5.8,27.5,6.1z M23.8,12.5c0.3,0,0.6,0.1,0.8,0.3c0.3,0.2,0.4,0.5,0.4,0.9
	c0,0.3-0.1,0.5-0.4,0.7c-0.2,0.2-0.5,0.4-0.8,0.3c-0.4,0.1-0.7-0.1-0.8-0.3c-0.2-0.2-0.4-0.5-0.3-0.8c0-0.4,0.1-0.7,0.3-0.8
	C23.2,12.6,23.5,12.5,23.8,12.5z"/>
<path class="st2" d="M12.2,30.2h6.7c2.5,0,4.5-2,4.5-4.5v-5.3"/>
<path class="st2" d="M12.2,30.2v3.1l-3-3.1H5.5c-2.5,0-4.5-2-4.5-4.5v-9.5c0-2.5,2-4.5,4.5-4.5h6.7"/>
<path class="st2" d="M4.9,18.6H15"/>
<path class="st2" d="M4.9,23h14.2"/>
</svg>
