<svg width="80" height="80" viewBox="0 0 80 80" fill="none" xmlns="http://www.w3.org/2000/svg">
<path d="M33.047 74.0465H6.65661C6.09009 74.0465 5.63373 73.5849 5.63373 73.0237V48.0286H0V76.8634C0 78.5577 1.37434 79.9373 3.0739 79.9373H33.0523C33.4771 79.9373 33.8181 79.5911 33.8181 79.1714V74.8229C33.8181 74.398 33.4719 74.057 33.0523 74.057L33.047 74.0465Z" fill="#5073B8"/>
<path d="M70.49 61.0953V73.0237C70.49 73.5902 70.0336 74.0466 69.4671 74.0466H41.2932C40.8683 74.0466 40.5273 74.3928 40.5273 74.8177V79.1663C40.5273 79.5912 40.8736 79.9321 41.2932 79.9321H73.055C74.7494 79.9321 76.1289 78.5578 76.1289 76.8582V61.0901C76.1289 60.6652 75.7827 60.3242 75.3631 60.3242H71.2663C70.8414 60.3242 70.5005 60.6704 70.5005 61.0901L70.49 61.0953Z" fill="#8DA6CE"/>
<path d="M37.254 0.000308483C36.3517 -0.0101826 35.4495 0.24685 34.6784 0.781897L2.57557 21.1661L2.43394 21.2658C0.907481 22.3726 0 24.1404 0 25.9973V48.0863H5.63373V26.8418C5.63373 26.3173 5.90125 25.8294 6.34188 25.5462L36.4147 6.34743C36.6717 6.18482 36.9602 6.10614 37.2487 6.10614V0.000308483H37.254Z" fill="#8DA6CE"/>
<path d="M67.0016 18.8213C67.4632 18.2968 67.3478 17.5676 66.7498 17.2004L39.6407 0.724131C38.9116 0.246785 38.0776 0.0107353 37.2383 0.000244141V6.11132C37.5111 6.11132 37.7838 6.18476 38.0251 6.33163L63.3612 21.6329C63.807 21.9004 64.3788 21.8113 64.7198 21.4231L66.9963 18.8213H67.0016Z" fill="#5073B8"/>
<path d="M61.326 53.6307H50.2893C49.7962 53.6307 49.3399 53.4418 48.9779 53.0851C48.616 52.7232 48.4219 52.2721 48.4219 51.7738C48.4219 50.4624 48.6842 49.13 49.1982 47.8239C49.707 46.5387 50.4362 45.3165 51.3646 44.1992C52.3036 43.0714 53.4419 42.1062 54.7533 41.3246C56.0332 40.543 57.0141 39.7772 57.6645 39.0585C58.2888 38.3714 58.7189 37.7209 58.934 37.1229C59.1543 36.5144 59.2697 35.9269 59.2697 35.3761C59.2697 34.5001 58.9917 33.8235 58.4252 33.3094C57.8272 32.7691 57.0403 32.5068 56.0279 32.5068C55.0837 32.5068 54.3021 32.7166 53.6412 33.1415C52.996 33.5612 52.5291 34.1697 52.2039 35.0037C52.0098 35.4915 51.6584 35.8482 51.1915 36.0476C50.7194 36.2469 50.2263 36.2417 49.7595 36.0423C49.3136 35.864 48.9569 35.5178 48.7576 35.0509C48.5635 34.5893 48.5583 34.0962 48.7576 33.6189C49.3661 32.1082 50.3208 30.9122 51.5954 30.0676C52.8649 29.2231 54.3546 28.793 56.0332 28.793C57.3498 28.793 58.5458 29.071 59.5897 29.6113C60.6545 30.1673 61.4991 30.9594 62.1023 31.9665C62.7003 32.9684 63.0045 34.1172 63.0045 35.3866C63.0045 37.0967 62.4905 38.7385 61.4728 40.265C60.4867 41.7443 58.8763 43.1658 56.6889 44.4929C55.4142 45.2693 54.3703 46.2869 53.5888 47.5091C53.0694 48.3222 52.6918 49.13 52.461 49.9221H61.3364C61.8558 49.9221 62.3121 50.1057 62.6636 50.4571C63.015 50.8086 63.2039 51.2702 63.2039 51.7843C63.2039 52.2668 63.0255 52.7127 62.695 53.0694C62.3383 53.4471 61.8715 53.6464 61.3417 53.6464L61.326 53.6307Z" fill="#5073B8"/>
<path d="M74.1512 54.0452C73.6686 54.0452 73.2228 53.8669 72.8661 53.5364C72.4884 53.1849 72.289 52.7286 72.289 52.2145V48.2279H64.2004C63.5132 48.2279 62.9257 47.8712 62.59 47.2522C62.2228 46.6647 62.2543 45.9146 62.7107 45.3113L72.4884 29.8055C72.5513 29.6796 72.6353 29.5589 72.7297 29.4488C72.8975 29.2547 73.1021 29.0973 73.3382 28.9819C74.0358 28.6462 74.9328 28.7878 75.4783 29.3334C75.8298 29.6848 76.0134 30.1307 76.0134 30.629V44.5035H78.1693C78.6991 44.5035 79.1607 44.6976 79.5069 45.0596C79.8322 45.411 80 45.8621 80 46.3605C80 46.8273 79.8374 47.2627 79.5332 47.6141C79.1922 48.0076 78.7096 48.2174 78.1693 48.2174H76.0134V52.204C76.0134 52.7023 75.8298 53.1535 75.4731 53.4997C75.1217 53.8459 74.6653 54.0347 74.146 54.0347L74.1512 54.0452ZM67.5838 44.5088H72.289V37.0391C72.095 37.3486 71.9061 37.6528 71.7225 37.9413C70.6472 39.6619 69.7659 41.0572 69.084 42.1273C68.4388 43.1397 67.9405 43.9318 67.5838 44.5088Z" fill="#5073B8"/>
<path d="M44.986 36.3888H44.7342C43.6431 36.3888 43.5225 35.7488 43.5225 35.4761C43.5225 35.2033 43.6431 34.9777 43.769 34.7469C44.1362 34.0965 44.409 33.4146 44.5087 33.0631C43.47 32.7536 42.8301 31.9353 42.8301 30.9177C42.8301 29.4699 43.8739 28.4575 45.3689 28.4575C46.502 28.4575 47.7242 29.2758 47.7242 31.0803C47.7242 32.8848 46.8482 34.8046 46.5807 35.3712C46.2135 36.137 45.8148 36.394 44.9808 36.394L44.986 36.3888Z" fill="#5073B8"/>
<path d="M26.1545 64.6412C18.8579 64.6412 12.9199 58.8449 12.9199 51.7214C12.9199 46.4758 19.4926 37.6213 23.411 32.8112C24.0825 31.9876 25.0844 31.5103 26.1597 31.5103C27.235 31.5103 28.2317 31.9824 28.9084 32.8112C32.8268 37.6266 39.3995 46.4811 39.3995 51.7214C39.3995 58.8449 33.4615 64.6412 26.165 64.6412H26.1545ZM26.1545 36.2208C20.6938 43.04 17.2003 49.0724 17.2003 51.7161C17.2003 56.4791 21.2184 60.3556 26.1545 60.3556C31.0905 60.3556 35.1086 56.4791 35.1086 51.7161C35.1086 49.0724 31.6151 43.04 26.1545 36.2208Z" fill="#5073B8"/>
</svg>
