<svg width="21" height="24" viewBox="0 0 21 24" fill="none" xmlns="http://www.w3.org/2000/svg">
<path d="M18.1947 0H1.86502C0.835 0 0 0.839584 0 1.87526V22.1248C0 23.1605 0.835 24 1.86502 24H18.1947C19.2247 24 20.0597 23.1605 20.0597 22.1248V1.87526C20.0597 0.839584 19.2247 0 18.1947 0Z" fill="#CE4444"/>
<mask id="mask0_49_1749" style="mask-type:luminance" maskUnits="userSpaceOnUse" x="3" y="4" width="14" height="16">
<path d="M16.5923 4.53125H3.68602V19.1713H16.5923V4.53125Z" fill="white"/>
</mask>
<g mask="url(#mask0_49_1749)">
<path d="M9.49594 8.86188C8.31743 12.8523 6.61594 17.0649 6.02489 17.8744C5.43385 18.684 4.2231 19.0923 4.2231 17.8064C4.48101 14.9622 11.9497 13.6046 13.3754 13.3682C14.801 13.1353 16.0548 13.3682 16.0548 14.2099C16.0548 15.0517 14.1598 16.001 11.8637 12.7807C9.49236 9.45292 8.31743 7.04576 8.35325 5.97113C8.35325 4.53829 10.8607 4.35918 9.50311 8.86188H9.49594Z" stroke="white" stroke-width="1.07463" stroke-miterlimit="10"/>
</g>
</svg>
