<svg width="56" height="55" viewBox="0 0 56 55" fill="none" xmlns="http://www.w3.org/2000/svg">
<path d="M48.5376 26.7731C51.8498 24.3953 53.9997 20.5134 53.9997 16.13V15.0969C53.9997 7.86472 48.135 2 40.9029 2H35.7902C28.5581 2 22.6934 7.86472 22.6934 15.0969V16.13C22.6934 23.3622 28.5581 29.2269 35.7902 29.2269H40.9029C41.8297 29.2269 42.7337 29.1281 43.5997 28.9458L47.8919 33.4507L48.5376 26.7655V26.7731Z" fill="#F57D14" stroke="#F57D14" stroke-width="2.27904" stroke-linecap="round" stroke-linejoin="round"/>
<path d="M43.7772 11.0822C43.801 11.4071 43.7295 11.7087 43.6819 12.0799C43.6343 12.4975 43.539 12.7527 43.4438 12.9848C43.3723 13.4024 43.2533 13.588 42.9913 13.8432C42.8484 14.0288 42.515 14.3768 42.3483 14.6321C42.1578 14.9105 41.8482 15.0265 41.7768 15.1193C41.5863 15.2353 41.3481 15.3281 41.1576 15.5601C40.9433 15.6993 40.7051 15.7689 40.5622 16.0241C40.3479 16.2562 40.086 16.2794 39.9907 16.4882C39.8002 16.6738 39.5144 16.9986 39.3715 17.3466C39.2525 17.6482 39.2286 17.9963 39.1572 18.4139C39.181 19.0635 38.9429 19.3651 38.7524 19.6204C38.4428 19.8988 38.3475 19.922 37.9189 19.9684C37.6093 19.9916 37.3235 19.9452 37.0616 19.6668C36.871 19.4811 36.6805 19.2259 36.7043 18.8779C36.752 18.3443 36.6805 17.9963 36.752 17.6018C36.8234 17.1842 36.871 16.9986 36.9901 16.581C36.9901 16.349 37.133 16.0241 37.3711 15.7457C37.4188 15.5137 37.8236 15.1657 37.9427 14.9801C38.1332 14.7713 38.2761 14.7249 38.4666 14.4928C38.7047 14.4696 38.7524 14.1912 39.0381 14.052C39.0858 13.936 39.4668 13.82 39.562 13.6112C39.7764 13.5416 39.8954 13.24 40.086 13.124C40.3003 12.9616 40.3955 12.6135 40.6337 12.1959C40.7528 11.8479 40.8242 11.4535 40.8242 11.1055C40.8718 10.9198 40.7766 10.5022 40.6575 10.2238C40.5861 10.0382 40.3003 9.78297 40.1336 9.48135C39.8002 9.38855 39.6335 9.17974 39.2763 9.04053C38.9667 8.92452 38.6333 8.99413 38.2761 8.90132C37.776 9.01733 37.2521 8.92452 36.7996 9.17974C36.6091 9.24934 36.3233 9.48135 36.1328 9.52776C35.9899 9.69017 35.6803 9.85258 35.5374 10.015C35.3469 10.2006 35.0612 10.5718 34.8468 10.8502C34.6563 11.0822 34.18 11.3143 33.8704 11.3375C33.4418 11.3607 33.2036 11.2215 32.8702 10.9894C32.5368 10.7342 32.3463 10.3862 32.394 10.1078C32.4654 9.73657 32.6083 9.38855 32.7274 9.22614C32.8941 8.97093 32.9893 8.78531 33.2513 8.5997C33.3465 8.43729 33.6799 8.29808 33.8466 8.04287C34.0848 7.95006 34.2277 7.83406 34.5134 7.60205C34.6325 7.41643 34.9659 7.43963 35.2279 7.23082C35.5374 7.06841 35.728 6.97561 35.9899 6.92921C36.1804 6.8828 36.5376 6.8828 36.7758 6.72039C37.1806 6.67399 37.8712 6.60439 38.3951 6.55798C38.7524 6.67399 39.0858 6.67399 39.5382 6.62759C39.8478 6.74359 40.2288 6.79 40.6813 6.906C41.1576 7.06841 41.3719 7.20762 41.753 7.37003C42.134 7.50924 42.4198 7.92686 42.6579 8.08927C42.9199 8.27488 42.896 8.5997 43.158 8.76211C43.2056 9.06373 43.5152 9.24934 43.5152 9.48135C43.5152 9.80617 43.6105 9.96858 43.7057 10.2702C43.801 10.595 43.7772 10.711 43.7772 11.0822ZM37.9665 21.1748C38.3713 21.198 38.8952 21.3373 39.2763 21.7085C39.7287 22.0797 39.8478 22.4741 39.8478 23.1006C39.8478 23.495 39.6811 23.9358 39.2763 24.2606C39.0381 24.6086 38.419 24.8407 37.9665 24.7711C37.395 24.8639 36.8472 24.6086 36.6329 24.2606C36.2519 23.9822 36.0614 23.495 36.0852 22.9845C36.109 22.3813 36.2757 21.9173 36.6091 21.6621C36.9901 21.3837 37.4188 21.1748 37.9665 21.1748Z" fill="white"/>
<path d="M19.6172 49.0012H30.1008C34.0359 49.0012 37.2265 45.8105 37.2265 41.8754V33.4581" stroke="#F57D14" stroke-width="2.27904" stroke-linecap="round" stroke-linejoin="round"/>
<path d="M19.6169 49.0012V53.8252L14.8917 49.0012H9.12579C5.19065 49.0012 2 45.8106 2 41.8754V26.9325C2 22.9974 5.19065 19.8068 9.12579 19.8068H19.6094" stroke="#F57D14" stroke-width="2.27904" stroke-linecap="round" stroke-linejoin="round"/>
<path d="M8.21387 30.7917H24.0684" stroke="#F57D14" stroke-width="2.27904" stroke-linecap="round" stroke-linejoin="round"/>
<path d="M8.21387 37.7201H30.5864" stroke="#F57D14" stroke-width="2.27904" stroke-linecap="round" stroke-linejoin="round"/>
</svg>
