<svg width="47" height="55" viewBox="0 0 47 55" fill="none" xmlns="http://www.w3.org/2000/svg">
<path d="M23.3446 25.9055C22.2247 27.3313 20.3896 28.1736 18.3804 27.8771C16.0465 27.5383 14.1925 25.6138 13.9196 23.2705C13.5526 20.0661 16.0465 17.3511 19.1756 17.3511C21.453 17.3511 23.3964 18.7909 24.1398 20.8096C24.4692 21.6989 23.8245 22.64 22.8788 22.64H10.8046" stroke="#BA752B" stroke-width="2.61748" stroke-linecap="round" stroke-linejoin="round"/>
<path d="M31.1913 27.139C30.6728 27.6834 29.944 28.0204 29.1346 28.0204C27.5647 28.0204 26.2915 26.7472 26.2915 25.1773C26.2915 23.6074 27.5618 22.3342 29.1317 22.3342C29.9181 22.3342 30.6267 22.6511 31.1423 23.1667" stroke="#BA752B" stroke-width="2.61748" stroke-linecap="round" stroke-linejoin="round"/>
<path d="M36.5365 27.8389C38.0065 27.8389 39.1981 26.6472 39.1981 25.1772C39.1981 23.7073 38.0065 22.5156 36.5365 22.5156C35.0665 22.5156 33.8749 23.7073 33.8749 25.1772C33.8749 26.6472 35.0665 27.8389 36.5365 27.8389Z" stroke="#BA752B" stroke-width="2.61748" stroke-linecap="round" stroke-linejoin="round"/>
<path d="M33.5468 52.9646H15.3717C11.8527 52.9646 9 50.1119 9 46.593V30.9823V15.3717C9 11.8527 11.8527 9 15.3717 9H26.8407H38.3098C41.8287 9 44.6815 11.8527 44.6815 15.3717V52.9646" stroke="#BA752B" stroke-width="3.60218" stroke-linecap="round" stroke-linejoin="round"/>
<path opacity="0.3" d="M26.8407 9H15.3717C11.8527 9 9 11.8527 9 15.3717V30.9823" stroke="#BA752B" stroke-width="18.0109" stroke-linecap="round" stroke-linejoin="round"/>
<circle cx="33.2126" cy="40.8587" r="3.18584" stroke="#BA752B" stroke-width="3.60218"/>
</svg> 